<?xml version="1.0" encoding="UTF-8"?><svg id="Layer_1" xmlns="http://www.w3.org/2000/svg" width="170" height="170" viewBox="0 0 170 170"><defs><style>.cls-1{fill:#f3ea7d;}.cls-1,.cls-2,.cls-3,.cls-4,.cls-5,.cls-6,.cls-7,.cls-8,.cls-9,.cls-10,.cls-11,.cls-12,.cls-13,.cls-14,.cls-15,.cls-16,.cls-17,.cls-18,.cls-19,.cls-20,.cls-21,.cls-22,.cls-23,.cls-24,.cls-25,.cls-26,.cls-27,.cls-28,.cls-29,.cls-30,.cls-31,.cls-32,.cls-33,.cls-34,.cls-35,.cls-36,.cls-37,.cls-38,.cls-39,.cls-40,.cls-41,.cls-42,.cls-43{stroke-width:0px;}.cls-2{fill:#f7f1a8;}.cls-3{fill:#f8c323;}.cls-4{fill:#f2e872;}.cls-5{fill:#f4ca21;}.cls-6{fill:#f7c522;}.cls-7{fill:#f6ef9d;}.cls-8{fill:#f9f4be;}.cls-9{fill:#f9c224;}.cls-10{fill:#fac024;}.cls-11{fill:#f8f3b3;}.cls-12{fill:#fdfbe9;}.cls-13{fill:#feba26;}.cls-14{fill:#ecde31;}.cls-15{fill:#f1e667;}.cls-16{fill:#f2cd20;}.cls-17{fill:#f3cb20;}.cls-18{fill:#fff;}.cls-19{fill:#ebd81c;}.cls-20{fill:#eddf3c;}.cls-21{fill:#eada1b;}.cls-22{fill:#f5c821;}.cls-23{fill:#eed41d;}.cls-24{fill:#f0d01e;}.cls-25{fill:#efe351;}.cls-26{fill:#faf6c9;}.cls-27{fill:#ebdc26;}.cls-28{fill:#fcfade;}.cls-29{fill:#fdbb26;}.cls-30{fill:#edd51d;}.cls-31{fill:#ffb827;}.cls-32{fill:#fefdf4;}.cls-33{fill:#fcbd25;}.cls-34{fill:#fbf8d4;}.cls-35{fill:#eee146;}.cls-36{fill:#ecd71c;}.cls-37{fill:#efd21e;}.cls-38{fill:#f0e55c;}.cls-39{fill:#f1cf1f;}.cls-40{fill:#fbbe25;}.cls-41{fill:#f5ed92;}.cls-42{fill:#f6c722;}.cls-43{fill:#f4ec88;}</style></defs><path class="cls-18" d="m85,61.53c0-126-133-24.4-7,5.35-126-29.74-75.2,134.65,2.67,8.65-77.87,126,86.52,126,8.65,0,77.87,126,128.67-38.4,2.67-8.65,126-29.74-7-131.35-7-5.35Z"/><path class="cls-32" d="m85,61.7c0-122.97-129.66-23.81-6.82,5.22-122.84-29.03-73.31,131.41,2.61,8.44-75.92,122.97,84.36,122.97,8.44,0,75.92,122.97,125.45-37.47,2.61-8.44,122.84-29.03-6.82-128.19-6.82-5.22Z"/><path class="cls-12" d="m85,61.87c0-119.94-126.33-23.22-6.65,5.09-119.68-28.31-71.43,128.17,2.54,8.24-73.97,119.94,82.19,119.94,8.22,0,73.97,119.94,122.22-36.55,2.54-8.24,119.68-28.31-6.65-125.03-6.65-5.09Z"/><path class="cls-28" d="m85,62.04c0-116.91-122.99-22.64-6.47,4.96-116.52-27.6-69.54,124.93,2.47,8.03-72.01,116.91,80.02,116.91,8,0,72.01,116.91,118.99-35.63,2.47-8.03,116.52-27.6-6.47-121.87-6.47-4.96Z"/><path class="cls-34" d="m85,62.21c0-113.87-119.66-22.05-6.3,4.83-113.36-26.88-67.66,121.69,2.41,7.82-70.06,113.87,77.85,113.87,7.78,0,70.06,113.87,115.77-34.7,2.41-7.82,113.36-26.88-6.3-118.71-6.3-4.83Z"/><path class="cls-26" d="m85,62.37c0-110.84-116.32-21.46-6.12,4.7-110.2-26.17-65.77,118.46,2.34,7.61-68.11,110.84,75.68,110.84,7.57,0,68.11,110.84,112.54-33.78,2.34-7.61,110.2-26.17-6.12-115.55-6.12-4.7Z"/><path class="cls-8" d="m85,62.54c0-107.81-112.99-20.88-5.95,4.58-107.04-25.45-63.88,115.22,2.27,7.4-66.16,107.81,73.51,107.81,7.35,0,66.16,107.81,109.31-32.85,2.27-7.4,107.04-25.45-5.95-112.39-5.95-4.58Z"/><path class="cls-11" d="m85,62.71c0-104.78-109.65-20.29-5.77,4.45-103.88-24.74-62,111.98,2.2,7.2-64.2,104.78,71.34,104.78,7.13,0,64.2,104.78,106.09-31.93,2.2-7.2,103.88-24.74-5.77-109.23-5.77-4.45Z"/><path class="cls-2" d="m85,62.88c0-101.75-106.32-19.7-5.6,4.32-100.72-24.02-60.11,108.74,2.14,6.99-62.25,101.75,69.17,101.75,6.92,0,62.25,101.75,102.86-31.01,2.14-6.99,100.72-24.02-5.6-106.07-5.6-4.32Z"/><path class="cls-7" d="m85,63.05c0-98.72-102.98-19.11-5.42,4.19-97.56-23.3-58.23,105.5,2.07,6.78-60.3,98.72,67,98.72,6.7,0,60.3,98.72,99.63-30.08,2.07-6.78,97.56-23.3-5.42-102.91-5.42-4.19Z"/><path class="cls-41" d="m85,63.22c0-95.69-99.65-18.53-5.24,4.06-94.41-22.59-56.34,102.26,2,6.57-58.35,95.69,64.83,95.69,6.48,0,58.35,95.69,96.41-29.16,2-6.57,94.41-22.59-5.24-99.75-5.24-4.06Z"/><path class="cls-43" d="m85,63.39c0-92.66-96.31-17.94-5.07,3.93-91.25-21.87-54.46,99.02,1.94,6.36-56.39,92.66,62.66,92.66,6.27,0,56.39,92.66,93.18-28.24,1.94-6.36,91.25-21.87-5.07-96.59-5.07-3.93Z"/><path class="cls-1" d="m85,63.55c0-89.62-92.98-17.35-4.89,3.8-88.09-21.16-52.57,95.78,1.87,6.15-54.44,89.62,60.49,89.62,6.05,0,54.44,89.62,89.96-27.31,1.87-6.15,88.09-21.16-4.89-93.43-4.89-3.8Z"/><path class="cls-4" d="m85,63.72c0-86.59-89.64-16.77-4.72,3.68-84.93-20.44-50.69,92.54,1.8,5.95-52.49,86.59,58.32,86.59,5.83,0,52.49,86.59,86.73-26.39,1.8-5.95,84.93-20.44-4.72-90.27-4.72-3.68Z"/><path class="cls-15" d="m85,63.89c0-83.56-86.31-16.18-4.54,3.55-81.77-19.73-48.8,89.3,1.74,5.74-50.53,83.56,56.15,83.56,5.61,0,50.53,83.56,83.5-25.46,1.74-5.74,81.77-19.73-4.54-87.11-4.54-3.55Z"/><path class="cls-38" d="m85,64.06c0-80.53-82.97-15.59-4.37,3.42-78.61-19.01-46.91,86.06,1.67,5.53-48.58,80.53,53.98,80.53,5.4,0,48.58,80.53,80.28-24.54,1.67-5.53,78.61-19.01-4.37-83.95-4.37-3.42Z"/><path class="cls-25" d="m85,64.23c0-77.5-79.64-15.01-4.19,3.29-75.45-18.3-45.03,82.82,1.6,5.32-46.63,77.5,51.81,77.5,5.18,0,46.63,77.5,77.05-23.62,1.6-5.32,75.45-18.3-4.19-80.79-4.19-3.29Z"/><path class="cls-35" d="m85,64.4c0-74.47-76.3-14.42-4.02,3.16-72.29-17.58-43.14,79.58,1.53,5.11-44.68,74.47,49.64,74.47,4.96,0,44.68,74.47,73.82-22.69,1.53-5.11,72.29-17.58-4.02-77.63-4.02-3.16Z"/><path class="cls-20" d="m85,64.56c0-71.44-72.97-13.83-3.84,3.03-69.13-16.86-41.26,76.34,1.47,4.91-42.72,71.44,47.47,71.44,4.75,0,42.72,71.44,70.6-21.77,1.47-4.91,69.13-16.86-3.84-74.47-3.84-3.03Z"/><path class="cls-14" d="m85,64.73c0-68.41-69.63-13.25-3.66,2.9-65.97-16.15-39.37,73.1,1.4,4.7-40.77,68.41,45.3,68.41,4.53,0,40.77,68.41,67.37-20.85,1.4-4.7,65.97-16.15-3.66-71.31-3.66-2.9Z"/><path class="cls-27" d="m85,64.9c0-65.37-66.3-12.66-3.49,2.77-62.81-15.43-37.49,69.86,1.33,4.49-38.82,65.37,43.13,65.37,4.31,0,38.82,65.37,64.14-19.92,1.33-4.49,62.81-15.43-3.49-68.15-3.49-2.77Z"/><path class="cls-21" d="m85,65.07c0-62.34-62.96-12.07-3.31,2.65-59.65-14.72-35.6,66.62,1.27,4.28-36.87,62.34,40.96,62.34,4.1,0,36.87,62.34,60.92-19,1.27-4.28,59.65-14.72-3.31-64.99-3.31-2.65Z"/><path class="cls-19" d="m85,65.18c0-60.33-61.05-11.68-3.21,2.56-57.83-14.24-34.52,64.47,1.23,4.14-35.74,60.33,39.71,60.33,3.97,0,35.74,60.33,59.06-18.38,1.23-4.14,57.83-14.24-3.21-62.89-3.21-2.56Z"/><path class="cls-36" d="m85,65.29c0-58.32-59.13-11.29-3.11,2.48-56.02-13.77-33.43,62.32,1.19,4-34.62,58.32,38.47,58.32,3.85,0,34.62,58.32,57.21-17.77,1.19-4,56.02-13.77-3.11-60.79-3.11-2.48Z"/><path class="cls-30" d="m85,65.4c0-56.3-57.21-10.9-3.01,2.39-54.2-13.29-32.35,60.17,1.15,3.87-33.5,56.3,37.22,56.3,3.72,0,33.5,56.3,55.35-17.16,1.15-3.87,54.2-13.29-3.01-58.69-3.01-2.39Z"/><path class="cls-23" d="m85,65.52c0-54.29-55.29-10.51-2.91,2.3-52.38-12.82-31.26,58.02,1.11,3.73-32.37,54.29,35.97,54.29,3.6,0,32.37,54.29,53.49-16.54,1.11-3.73,52.38-12.82-2.91-56.59-2.91-2.3Z"/><path class="cls-37" d="m85,65.63c0-52.28-53.37-10.12-2.81,2.22-50.57-12.34-30.18,55.87,1.07,3.59-31.25,52.28,34.72,52.28,3.47,0,31.25,52.28,51.64-15.93,1.07-3.59,50.57-12.34-2.81-54.5-2.81-2.22Z"/><path class="cls-24" d="m85,65.74c0-50.26-51.46-9.73-2.71,2.13-48.75-11.87-29.09,53.72,1.03,3.45-30.13,50.26,33.48,50.26,3.35,0,30.13,50.26,49.78-15.32,1.03-3.45,48.75-11.87-2.71-52.4-2.71-2.13Z"/><path class="cls-39" d="m85,65.85c0-48.25-49.54-9.34-2.61,2.05-46.93-11.39-28.01,51.56,1,3.31-29.01,48.25,32.23,48.25,3.22,0,29.01,48.25,47.93-14.7,1-3.31,46.93-11.39-2.61-50.3-2.61-2.05Z"/><path class="cls-16" d="m85,65.96c0-46.24-47.62-8.95-2.51,1.96-45.11-10.92-26.93,49.41.96,3.18-27.88,46.24,30.98,46.24,3.1,0,27.88,46.24,46.07-14.09.96-3.18,45.11-10.92-2.51-48.2-2.51-1.96Z"/><path class="cls-17" d="m85,66.08c0-44.22-45.7-8.56-2.41,1.88-43.3-10.44-25.84,47.26.92,3.04-26.76,44.22,29.73,44.22,2.97,0,26.76,44.22,44.22-13.48.92-3.04,43.3-10.44-2.41-46.1-2.41-1.88Z"/><path class="cls-5" d="m85,66.19c0-42.21-43.79-8.17-2.3,1.79-41.48-9.96-24.76,45.11.88,2.9-25.64,42.21,28.49,42.21,2.85,0,25.64,42.21,42.36-12.86.88-2.9,41.48-9.96-2.3-44-2.3-1.79Z"/><path class="cls-22" d="m85,66.3c0-40.2-41.87-7.78-2.2,1.71-39.66-9.49-23.67,42.96.84,2.76-24.51,40.2,27.24,40.2,2.72,0,24.51,40.2,40.51-12.25.84-2.76,39.66-9.49-2.2-41.9-2.2-1.71Z"/><path class="cls-42" d="m85,66.41c0-38.19-39.95-7.39-2.1,1.62-37.85-9.01-22.59,40.81.8,2.62-23.39,38.19,25.99,38.19,2.6,0,23.39,38.19,38.65-11.64.8-2.62,37.85-9.01-2.1-39.81-2.1-1.62Z"/><path class="cls-6" d="m85,66.52c0-36.17-38.03-7-2,1.54-36.03-8.54-21.5,38.66.76,2.48-22.27,36.17,24.74,36.17,2.47,0,22.27,36.17,36.79-11.02.76-2.48,36.03-8.54-2-37.71-2-1.54Z"/><path class="cls-3" d="m85,66.63c0-34.16-36.11-6.61-1.9,1.45-34.21-8.06-20.42,36.5.73,2.35-21.14,34.16,23.49,34.16,2.35,0,21.14,34.16,34.94-10.41.73-2.35,34.21-8.06-1.9-35.61-1.9-1.45Z"/><path class="cls-9" d="m85,66.75c0-32.15-34.2-6.22-1.8,1.36-32.4-7.59-19.33,34.35.69,2.21-20.02,32.15,22.25,32.15,2.22,0,20.02,32.15,33.08-9.8.69-2.21,32.4-7.59-1.8-33.51-1.8-1.36Z"/><path class="cls-10" d="m85,66.86c0-30.13-32.28-5.83-1.7,1.28-30.58-7.11-18.25,32.2.65,2.07-18.9,30.13,21,30.13,2.1,0,18.9,30.13,31.23-9.18.65-2.07,30.58-7.11-1.7-31.41-1.7-1.28Z"/><path class="cls-40" d="m85,66.97c0-28.12-30.36-5.44-1.6,1.19-28.76-6.64-17.17,30.05.61,1.93-17.78,28.12,19.75,28.12,1.98,0,17.78,28.12,29.37-8.57.61-1.93,28.76-6.64-1.6-29.31-1.6-1.19Z"/><path class="cls-33" d="m85,67.08c0-26.11-28.44-5.05-1.5,1.11-26.94-6.16-16.08,27.9.57,1.79-16.65,26.11,18.5,26.11,1.85,0,16.65,26.11,27.52-7.96.57-1.79,26.94-6.16-1.5-27.21-1.5-1.11Z"/><path class="cls-29" d="m85,67.19c0-24.09-26.52-4.67-1.4,1.02-25.13-5.69-15,25.75.53,1.65-15.53,24.09,17.26,24.09,1.73,0,15.53,24.09,25.66-7.34.53-1.65,25.13-5.69-1.4-25.12-1.4-1.02Z"/><path class="cls-13" d="m85,67.31c0-22.08-24.61-4.28-1.3.94-23.31-5.21-13.91,23.6.49,1.52-14.41,22.08,16.01,22.08,1.6,0,14.41,22.08,23.81-6.73.49-1.52,23.31-5.21-1.3-23.02-1.3-.94Z"/><path class="cls-31" d="m85,67.42c0-20.07-22.69-3.89-1.19.85-21.49-4.74-12.83,21.44.46,1.38-13.28,20.07,14.76,20.07,1.48,0,13.28,20.07,21.95-6.11.46-1.38,21.49-4.74-1.19-20.92-1.19-.85Z"/></svg>