<?xml version="1.0" encoding="UTF-8"?><svg id="Layer_1" xmlns="http://www.w3.org/2000/svg" width="239.5" height="678.25" xmlns:xlink="http://www.w3.org/1999/xlink" viewBox="0 0 239.5 678.25"><defs><style>.cls-1,.cls-2,.cls-3{stroke-width:0px;}.cls-1,.cls-4{fill:none;}.cls-5,.cls-6,.cls-7,.cls-8,.cls-9,.cls-10,.cls-11,.cls-12,.cls-13,.cls-14,.cls-15,.cls-16,.cls-17,.cls-18,.cls-19,.cls-20,.cls-4{stroke:#000;stroke-miterlimit:10;}.cls-2{fill:url(#radial-gradient);}.cls-6,.cls-7{stroke-width:.25px;}.cls-6,.cls-13{fill:#aa895c;}.cls-7,.cls-15{fill:#8c673b;}.cls-8{fill:#b7a580;stroke-width:.5px;}.cls-9{fill:#fff;}.cls-10{fill:#f4f3f2;}.cls-11{fill:#d3c8bc;}.cls-12{fill:#bcb58f;}.cls-14{fill:#b57647;}.cls-16{fill:#383530;}.cls-17{fill:#9b9478;}.cls-18{fill:#89846d;}.cls-19{fill:#234c2a;}.cls-20{fill:#422c0f;}.cls-3{fill:url(#radial-gradient-2);}</style><radialGradient id="radial-gradient" cx="94.1" cy="128.74" fx="94.1" fy="128.74" r="9.33" gradientTransform="translate(7.25 -5) rotate(3.17)" gradientUnits="userSpaceOnUse"><stop offset="0" stop-color="#aa7c7c"/><stop offset=".91" stop-color="#aa895c"/></radialGradient><radialGradient id="radial-gradient-2" cx="141.18" cy="-1.6" fx="141.18" fy="-1.6" r="9.33" gradientTransform="translate(13.61 119.33) rotate(3.17)" gradientUnits="userSpaceOnUse"><stop offset="0" stop-color="#aa7c7c"/><stop offset=".94" stop-color="#aa895c"/></radialGradient></defs><path class="cls-12" d="m162.18,648.66h22c8.54-20.27,10.64-36.77,11-48,.56-17.32-2.19-47.06,3-60,.44-1.09,2.21-5.24,3-11.1.82-6.04.15-10.68,0-11.9-.82-6.45-1.19-24.75,0-70.91-3.59-.66-7.3-1.3-11.07-2.23-5.61-1.38-11.36-2.86-11.93-2.86l-21.91,5c-1.16,0-2.09.94-2.09,2.09.04.35,7.02,9.91-8,9.91-5,0-.27,27.01,0,30,1.6,17.51,1.19,24.79,2,25-3,10,5,34,5,36,0,21.28.64,39.02,9,99Z"/><path class="cls-12" d="m116.93,648.66h-22c-8.54-20.27-10.64-36.77-11-48-.56-17.32,2.19-47.06-3-60-.44-1.09-2.21-5.24-3-11.1-.82-6.04-.15-10.68,0-11.9.82-6.45,1.19-24.75,0-70.91,3.59-.66,7.3-1.3,11.07-2.23,5.61-1.38,11.36-2.86,11.93-2.86l21.91,5c1.16,0,2.09.94,2.09,2.09-.04.35-7.02,9.91,8,9.91,5,0,.27,27.01,0,30-1.6,17.51-1.19,24.79-2,25,3,10-5,34-5,36,0,21.28-.64,39.02-9,99Z"/><path class="cls-20" d="m183.41,115.21c1.19-1.32,1.59-2.7,1.67-4.23-1.07-.72-2.12-1.31-2.71-2.88-1.18-3.17.9-4.43,1.49-6.67,1.06-4-.57-5.45-4.16-7.18-3.38-1.64-3.06-5.25-1.06-7.42-.19-.3-.38-.59-.57-.88-1.97-2.96-3.45-4.83-7.13-5.34-4.21-.58-4.44-4.99-2.28-7.66-1.72-1.16-3.25-2.66-4.53-4.52-6.92-.78-13.78-2.84-18.25-8-5.95-1.17-11.98-1.96-18.08-2.31-9.45-.55-18.59-.17-27.82,2.03-3.41.81-6.78,1.77-10.14,2.79-5.25,6.84-13.93,10.18-22.57,9.87-.11.36-.24.71-.37,1.06.28-.1.56-.2.84-.28,6.18-1.89,8.79,7.76,2.66,9.64-6.29,1.93-12.27,11.51-10.13,17.95.72,2.16-.51,4.48-2.3,5.65-1.2.78.92,5.58,1.25,6.4.77,1.92-.51,4.77-2.3,5.65-3.26,1.6,1.96,7.68,3.63,9.44,1.55,1.62,1.91,4.09.78,6.06-1.16,2.03-.74,4.37.18,6.63,1.85,1.03,3.23,2.69,4.06,4.9,1.54.33,2.99.98,4.31,2.09,1.22,1.03,2.02,1.96,2.36,3.54.04.17.11.73.15,1.34.47.11.92.26,1.36.47,1.4.49,2.69,1.19,3.85,2.11,1.71,1.35,2.03,2.45,2.35,3.94,2.86,1.15,5.91,1.07,8.02,4.39.38.6,1.88,4.11,1.11,3.65.99.58,4.13-.11,5.42.13,6.33,1.14,7.64,4.99,7.83,9.76,6.99-2.93,16.05-3.4,26.18-1.73,5.94.98,11.82,2.5,17.72,4,.14-.41.26-.82.38-1.22-1.37-.72-2.6-1.63-3.59-2.8-1.44-1.72-1.97-4.03-.78-6.06,1.03-1.77,3.62-3.09,5.65-2.3.03.01.06.02.09.03,1.68-2.24,4.8-3.59,8.3-3.44.35.02.71.04,1.06.07.6-.86,1.26-1.66,2.02-2.36.53-3.34,1.88-6,5.04-7.99,3.72-2.35,7.79-2.13,8.96-6.87,1.29-5.19,5.16-8.6,9.6-11.43.99-4.73,2.58-10.12-.34-13.95-1.37-1.79-.55-4.57.78-6.06Z"/><path class="cls-4" d="m108.57,171.41c2.7,5.27,3.95,11.28,3.57,17.2"/><path class="cls-4" d="m106.22,170.46c11.5,2.97,23.77,2.91,35.23-.19"/><path class="cls-12" d="m135.75,323.89c-1.44-1.65-.95-4.15-.73-6.34.61-6.03-1.56-11.95-2.33-17.97-.52-4.1-.38-8.25-.4-12.38-.03-6-.39-12-.74-18-1.26-21.13-2.26-42.57-3.52-63.7,4.04-4.24,5.99-10.39,5.12-16.18,5.51-1.68,10.91-3.71,16.17-6.06,3.14,2.7,7.44,4.02,11.56,3.52,3.14-.38,6.22-1.74,9.35-1.29,2.65.39,3.95,1.53,6.1,3.12,1.36,10.89-2.5,21.71-3.12,32.66-.72,12.93,5.54,23.64,5.76,36.58.1,6.32-1.03,12.67-3.31,18.56-.71,1.84-1.54,3.66-1.83,5.6-.78,5.33,2.54,10.26,4.5,15.27,1.4,3.56,2.14,7.38,2.17,11.21-5.65,6.09-13.47,10.68-21.53,12.68-8.06,1.99-14.93,2.28-23.23,2.69Z"/><path class="cls-12" d="m100.59,182.41c.64,2.45,2.52,4.54,4.89,5.44,3.35,1.27,7.29.21,10.57,1.65,2.35,1.03,3.99,3.16,5.52,5.21,2.45,3.28,4.91,6.56,7.36,9.84-1.13,1.39-.78,3.3-.56,5.08,1.52,12.5,2.06,25.12,1.6,37.71-.21,5.92,1.08,11.63,1.61,17.53.25,2.79.28,5.66.48,8.45.28,4.07.57,8.14.55,12.21,0,1.61-.26,3.34-.19,4.95.12,2.48.23,4.96.35,7.43.07,1.44.14,2.89.49,4.28.33,1.3.9,2.62.6,3.93-.83,3.68,1.72,7.57,1.24,11.31-.14,1.13-.41,2.25-.43,3.39s.23,2.34.98,3.19c-13.37-.92-27.06-1.95-40.43-2.86-3.97-.27-8.28-.68-11.2-3.38-3.47-3.19-4.5-9.16-9.01-10.54,1.34-11.2,1.65-22.59,1.88-33.86.21-10.22-.5-20.46-2.12-30.56-2.74-17.11.93-34.6-3.08-51.46,3.43-3.74,8.51-5.75,13.57-5.55,2.16.08,4.32.56,6.45.23,1.2-.19,2.34-.63,3.47-1.07,1.78-.69,3.61-1.86,5.39-2.55Z"/><path class="cls-18" d="m112.06,225.38c-7.27,1.98-14.85,2.77-22.37,2.34-.27,6.51.05,13.01,1.33,19.4.2,1,.42,2.01.92,2.9.69,1.25,1.86,2.15,3.04,2.95,2.25,1.53,4.79,2.85,7.5,2.84,4.27-.02,7.93-3.42,9.58-7.36s1.69-8.33,1.67-12.6c-.01-3.12-.64-7.52-1.66-10.46Z"/><path class="cls-12" d="m74.93,248.03c0,.17,0,.33,0,.5-.2-.49-.29-1.02-.35-1.54-.34-2.71-.81-5-.91-7.73-.38-10.89.27-21.82-.41-32.7-.25-3.94-.67-7.88-1.09-11.8-.09-.83-.18-1.67-.27-2.5-.03-.3-.07-.63-.26-.87s-.4-.26-.61-.03c-6.52,7.12-13.03,14.25-19.55,21.37-3.48,3.81-6.97,7.62-10.59,11.3-12.07,12.26-26.01,23.53-33.06,39.22,1.82,6.35,3.87,12.84,7.47,18.38,2.64,4.06,6.13,7.49,9.58,10.89,3.29,3.23,6.6,6.48,10.31,9.21,3.55,2.62,7.44,4.75,11.16,7.12,10.95,6.98,20.42,16.05,29.4,25.43.74-3.69,1.18-7.06,1.07-10.82-.15-5.43-2.06-10.68-2.3-16.11-.13-3.03-4.26-4.52-6.64-6.39-2.76-2.17-5.17-4.76-7.56-7.34-1.17-1.26-2.34-2.52-3.33-3.93-1.99-2.85-3.15-6.2-4.82-9.25s-4.1-5.97-7.45-6.92c5.41-6.11,10.59-12.46,15.57-18.92,1.81-2.35,3.63-4.72,5.14-7.28,2.67-4.53,4.35-9.65,7.47-13.89,3.22,4.16-1.26,10.5,2.02,14.6Z"/><path class="cls-12" d="m179.36,254.22c2.73,3.16,5.47,6.32,8.2,9.48.97,1.12,1.94,2.24,3.01,3.27,3.27,3.13,7.27,5.61,9.04,9.78.83,1.96.16,4.21-.68,6.16-2.66,6.22-7.09,12.08-12.49,16.15,3.05,1.38,5.55,3.76,7.55,6.45s3.52,5.68,5.04,8.66c1.33,2.62,2.73,4.91,2.38,7.83,1.85-1.41,3.67-2.51,5.32-4.14,7.51-7.41,15.02-14.83,22.53-22.24,1.26-1.25,2.54-2.51,3.46-4.02,2.11-3.45,2.14-7.78,1.57-11.78-1.38-9.78-5.38-19.15-10.34-27.69-6.78-11.67-12.73-23.82-20.07-35.15-7.34-11.32-16.24-21.93-27.64-29.14.69,4.72.76,9.62.38,14.38-.08,1-.18,2-.44,2.96-.28,1.06-.73,2.07-1.07,3.11-.68,2.12-.87,4.36-1.06,6.57-.19,2.25-.38,4.5-.57,6.76-.12,1.46-.24,2.95.06,4.39.38,1.79,1.4,3.55.96,5.32-.47,1.87.48,3.83.91,5.71,1.35,5.86,0,12.64,3.94,17.19Z"/><path class="cls-13" d="m112.19,187.42c-.03.32.07.73.37.86,1.95,0,3.9.59,5.52,1.67,1.46.98,2.64,2.33,3.72,3.72,1.34,1.74,2.54,3.59,3.81,5.38,1.06,1.5,2.17,2.97,3.32,4.41,1.27-1.92,2.35-3.95,3.23-6.08,1.08-2.62,1.85-5.65.68-8.23,2.02.07,4.5-1.17,5.95-2.59.18.02.08.35-.1.34s-.29-.2-.38-.36c-2.19-4.45-2.89-9.61-1.96-14.48-9.15.13-18.35.02-27.5-.33,1.55,1.41,2.06,3.61,2.42,5.67.59,3.4,1.27,6.58.92,10.01Z"/><path class="cls-17" d="m72.89,233.9c-3.52,4.58-5.13,10.33-8.17,15.24-1.12,1.81-2.44,3.5-3.75,5.18-1.37,1.75-2.73,3.5-4.1,5.25-1.56,2-3.12,4-4.87,5.84-1.02,1.07-2.1,2.09-2.94,3.31-.37.54-.7,1.13-1.18,1.58-.51.48-1.17.79-1.7,1.25s-.94,1.19-.71,1.86c1.91,1.28,4.1,2.47,5.49,4.3,1.68,2.21,2.4,4.97,3.61,7.47,2.08,4.3,5.57,7.73,8.98,11.06,1.13,1.11,1.95,2.34,3.15,3.37,1.99,1.72,4.02,3.47,6.39,4.61.84.4,1.87.92,1.9,1.86.37-2.25.56-4.59.82-6.85-3.22-2.03-5.21-5.58-7.87-8.31-1.15-1.18-2.44-2.22-3.63-3.35-1.41-1.34-2.69-2.81-3.96-4.29-1.18-1.37-2.38-2.75-3.25-4.33-.54-.99-.96-2.06-1.59-3s-1.53-1.78-2.64-2c-1.04-.2-2.1-1.16-2.93-1.81,3.98-5.97,9.97-10.25,15.11-15.26s9.7-11.48,9.39-18.65c-.06-1.44-.97-3-1.56-4.32Z"/><path class="cls-13" d="m179.1,116.24c-.14,13.27-3.6,24.45-12,34-11,12.51-26.21,22-45,22s-33-8.67-44-21c-8.56-9.59-14-20.59-14-34,0-11.49,2.06-21.9,8-30,9.9-13.49,27.29-16.15,48-16,18.72.13,39.54.18,50,11,8.13,8.42,9.14,20.8,9,34Z"/><path class="cls-12" d="m100.76,176.02c.36-.55.82-1.04,1.12-1.63.79-1.53.37-3.38-.1-5.04.85-.07,1.72-.13,2.53.14s1.54.96,1.58,1.81c.04.73-.42,1.37-.75,2.02-1.73,3.29-.4,7.85,2.83,9.69-2.6-1.15-5.2-2.29-7.8-3.44,1.59,1.13,3.73,1.08,5.53,1.82,2.32.96,3.88,3.12,5.31,5.19.37.53.72,1.3.26,1.74-.25.24-.64.26-.98.24-1.89-.12-3.67-.91-5.4-1.69-1.18-.53-2.41-1.12-3.15-2.18-1.51-2.19-2.5-6.32-.98-8.68Z"/><path class="cls-17" d="m107.74,171.6c.44.4.72.94.98,1.48,2.03,4.28,3.06,9.03,2.98,13.76-1.45-1.57-2.89-3.15-4.34-4.72-1.21-1.32-2.48-2.76-2.73-4.53-.22-1.58.4-3.15,1.02-4.62.43-1.04.75-2.55,2.09-1.35Z"/><path class="cls-1" d="m138.87,182.12v.14"/><path class="cls-12" d="m146.37,172.51c-.54-.37-1.18-.64-1.67-1.05-1.3-1.08-1.4-2.88-1.41-4.53-.92.24-1.86.5-2.63,1.03s-1.33,1.4-1.12,2.18c.18.66.85,1.08,1.4,1.53,2.82,2.31,2.78,6.85-.08,9.64,2.4-1.95,4.8-3.89,7.21-5.84-1.35,1.57-3.61,2.29-5.29,3.59-2.16,1.68-3.16,4.16-4.06,6.51-.23.6-.37,1.41.25,1.64.34.13.75,0,1.11-.14,1.96-.78,3.6-2.12,5.19-3.43,1.08-.89,2.21-1.85,2.67-3.06.94-2.49.75-6.52-1.57-8.08Z"/><path class="cls-17" d="m137.67,171.06c-.35.51-.48,1.09-.59,1.66-.86,4.53-.52,9.13.98,13.32,1.05-1.92,2.11-3.83,3.16-5.75.88-1.61,1.79-3.34,1.53-5.01-.24-1.49-1.37-2.66-2.47-3.75-.77-.77-1.56-2.01-2.61-.46Z"/><path class="cls-1" d="m148.29,182.65c.31-.17.64-.36.83-.65.25-.37.25-.85.24-1.29-.02-.78-.04-1.59-.41-2.28-.3-.57-.8-1.01-1.31-1.41-1.78-1.42-3.74-2.63-5.83-3.58-.75-.34-1.52-.65-2.15-1.17s-1.1-1.29-1.01-2.09c-.79.81-1.85,1.37-2.97,1.58.1,1.03-.07,2.07-.14,3.1-.24,3.57.82,7.19,2.88,10.12,1.4,1.99,1.71,2.2,3.87,1.01,2-1.11,4-2.22,6-3.33Z"/><path class="cls-6" d="m52.6,109.49c-2.85,1.63-3.1,5.56-3.01,8.84.12,4.13.4,8.63,3.17,11.69,1.37,1.51,3.22,2.49,5.07,3.35,2.45,1.14,4.98,2.11,7.5,3.08.81.31,1.88.56,2.42-.12.27-.34.84.08.29-1.26-2.62-6.36-1.58-13.52-5.66-19.36-2.36-3.38-4.73-9.11-9.78-6.21Z"/><path class="cls-7" d="m52.02,119.3c.96,3.88,2.96,7.74,6.44,9.71.16.09.33.18.51.18.19,0,.37-.1.53-.21,2.36-1.72.79-5.76.38-8.03-.35-1.95-.27-4.24-1.07-6.09-.71-1.65-2.35-2.52-4.18-2.21-3.22.55-3.24,4.15-2.62,6.66Z"/><ellipse class="cls-2" cx="94.1" cy="128.74" rx="12" ry="5.5" transform="translate(-6.97 5.39) rotate(-3.17)"/><ellipse class="cls-3" cx="154.66" cy="125.53" rx="12" ry="5.5"/><path class="cls-20" d="m124.1,78.24c1.09-1.83,3.5-2.84,12-3,8.15-.15,12.23-.23,17,1,10.9,2.8,18.33,9.41,18,10-.33.6-8.1-5.6-20-6-5.17-.17-10.64.76-12,1-8.66,1.52-13.12,4.07-15,2-1.12-1.22-.86-3.55,0-5Z"/><path class="cls-20" d="m111.29,79.89c-1.31-1.21-3.66-1.5-11.36.12-7.38,1.55-11.07,2.33-15.16,4.26-9.34,4.42-14.87,11.1-14.47,11.49.4.4,6.32-6.03,16.98-8.78,4.64-1.2,9.74-1.59,11-1.68,8.08-.59,12.55.49,13.89-1.51.79-1.18.15-2.95-.89-3.9Z"/><path class="cls-9" d="m162.01,98.24c2.61,9.94-3.75,15.95-13.96,15-4.88-.45-12.73,2.05-14.96-1-2.73-3.74-2.01-11.38-1-14,3.36-8.7,11.55-11.48,17.95-10,2.97.69,9.66,1.19,11.97,10Z"/><path class="cls-19" d="m150.1,102.24c0,4.97-3.13,11-7,11s-7-6.03-7-11,3.13-9,7-9,7,4.03,7,9Z"/><path class="cls-5" d="m140.38,93.07c3.28-1.89,9.13,4.56,9.35,7.01.28,3.17-.47,5.53-3.74,7.42s-7.29,1.08-8.96-1.8c-1.67-2.89.07-10.74,3.35-12.63Z"/><path class="cls-10" d="m81.53,104.39c-2.61,9.94-.65,15.79,9.57,14.85,7.41-.69,13.74,1.93,16-1,.89-1.16,1.76-3,2-7,.2-3.28.55-9.07,0-11-1.33-4.67-2.03-4.4-3-5-4.89-3-10.47-2.98-14-2-2.94.82-8.26,2.35-10.57,11.15Z"/><path class="cls-19" d="m101.5,108.57c0,4.88-3.13,10.8-7,10.8s-7-5.92-7-10.8,3.13-8.83,7-8.83,7,3.96,7,8.83Z"/><path class="cls-5" d="m92.45,100.38c3.37-1.94,8.31,2.82,8.25,4.86-.07,2.63-1.05,4.69-4.42,6.63s-7.14,1.7-8.43-.53,1.24-9.01,4.6-10.95Z"/><path class="cls-4" d="m156.15,144.16c-2.39-1.04-4.34-3.06-5.31-5.48"/><path class="cls-14" d="m93.61,145.24c-.53,1.7,14,11.51,31.26,10,15.73-1.37,27.86-11.64,27.23-13-.46-1.01-7.74,3.09-20.17,5-22.24,3.42-37.79-3.71-38.32-2Z"/><path class="cls-4" d="m94.84,141.34c-.82,2.48-2.64,4.61-4.96,5.8"/><path class="cls-4" d="m99.13,148.81c-.43,1.12,11.36,7.57,25.36,6.58,12.76-.9,22.6-7.65,22.09-8.55-.38-.66-6.28,2.03-16.36,3.29-18.04,2.25-30.66-2.44-31.09-1.32Z"/><circle class="cls-9" cx="147.1" cy="98.24" r="2"/><path class="cls-4" d="m92.16,121.94c-2.45-.67-4.93-1.34-7.46-1.35s-5.18.74-6.95,2.55"/><path class="cls-4" d="m83.07,118.03c-1.48.39-2.9,1.01-4.19,1.82"/><path class="cls-4" d="m158.69,111.08c1.09-.29,2.19-.59,3.32-.56s2.29.44,2.99,1.33"/><path class="cls-4" d="m153.89,114.65c2.47-.58,4.97-1.16,7.51-1.07s5.14.93,6.85,2.81"/><path class="cls-4" d="m120.8,162.21c3.97-1.44,8.39-1.58,12.45-.41"/><ellipse class="cls-15" cx="123.1" cy="128.74" rx="7" ry="4.5"/><path class="cls-4" d="m75.39,344.24c24.2,3.67,48.61,5.99,73.07,6.93,4.2.16,8.4.28,12.59.29,13.71.03,27.91-1.3,39.85-8.02"/><path class="cls-6" d="m188.27,104.21c3.05,1.21,3.86,5.07,4.23,8.33.47,4.1.83,8.6-1.48,12.02-1.14,1.69-2.83,2.92-4.54,4.03-2.27,1.47-4.63,2.79-6.99,4.11-.76.42-1.78.82-2.41.22-.32-.3-.82.19-.46-1.2,1.7-6.66-.36-13.6,2.85-19.97,1.86-3.68,3.39-9.69,8.8-7.54Z"/><circle class="cls-9" cx="92.1" cy="103.24" r="2"/><path class="cls-13" d="m187.05,299.63c-1.43,3.37-3.57,6.44-6.25,8.94,1.86,4.77,4.4,9.99,6.86,14.48.23.43.51.89.96,1.06.3.11.63.08.94.05,3.36-.36,6.68-1.09,9.89-2.17.46-.16.95-.34,1.24-.73.27-.35.33-.82.36-1.26.29-4.14-1.49-8.2-4.06-11.46s-6.67-6.39-9.95-8.92Z"/><path class="cls-7" d="m190.23,113.84c-.4,3.97-1.83,8.08-4.99,10.52-.14.11-.3.22-.48.25-.19.03-.38-.04-.55-.13-2.58-1.37-1.6-5.59-1.52-7.9.07-1.98-.33-4.24.19-6.18.47-1.74,1.97-2.83,3.82-2.78,3.27.08,3.79,3.65,3.54,6.22Z"/><rect class="cls-9" x="75.1" y="335.24" width="126" height="122" rx="16.68" ry="16.68"/><path class="cls-11" d="m95.99,344.38c27.72,6.18,56.72,6.58,84.61,1.16,4.14,37.62,7.57,75.77,11.71,113.4-26.75-.41-52.82-.27-79.58-.69-10.34-.16-21.25-.47-30.08-5.87-1.77-35.89,4.55-73.16,13.34-108Z"/><path class="cls-11" d="m61.38,380.47c-3.76,17.21-7.53,34.5-8.75,52.07,7.33,5.12,15,9.78,22.93,13.91-2.54-1.32,4.06-39.31,4.59-43.74,1.77-14.84,3.76-29.65,5.97-44.43.66-4.42,4.21-14.5-.43-17.78-4.96-3.5-8,2.69-10.43,6-7.61,10.37-11.14,21.47-13.87,33.96Z"/><path class="cls-11" d="m213.98,381.59c3.76,17.21,7.53,34.5,8.75,52.07-7.33,5.12-15,9.78-22.93,13.91,2.54-1.32-4.06-39.31-4.59-43.74-1.77-14.84-3.76-29.65-5.97-44.43-.66-4.42-4.21-14.5.43-17.78,4.96-3.5,8,2.69,10.43,6,7.61,10.37,11.14,21.47,13.87,33.96Z"/><path class="cls-9" d="m202.22,339.31c1.12,1.29.6,3.43-.66,4.6s-3.01,1.6-4.68,1.97c-35.49,7.94-72.7,8.14-108.27.57-4.45-.95-8.95-2.02-13.48-1.67,2.19-12.45,2.22-25.27.08-37.72,2.49.58,3.57,3.99,4.83,6.2,1.81,3.17,5.11,5.28,8.59,6.39s7.17,1.35,10.81,1.58l36.31,2.29c6.55.41,13.07-.48,19.48-1.87.81-.17,1.58-.19,2.4-.46,5.96-1.99,11.72-4.58,17.16-7.72,2.45-1.41,4.9-3,6.52-5.32,2.88,10.63,11.6,19.89,19.03,29.09.23.29.23.57.14.79-.35.91.64,1.84,1.54,1.48.14-.06.21-.12.17-.19Z"/><path class="cls-13" d="m112.67,663.3c-.2-4.66-.19-9.15.16-13.8-4.74,0-9.48-.08-14.22-.27.49,4.81.98,9.72,1.22,14.55,4.09,0,8.75-.48,12.84-.48Z"/><path class="cls-13" d="m181.38,663.35c-.2-4.66-.19-9.15.16-13.8-4.74,0-9.48-.08-14.22-.27.49,4.81.98,9.72,1.22,14.55,4.09,0,8.75-.48,12.84-.48Z"/><ellipse class="cls-16" cx="91.43" cy="668.16" rx="30.5" ry="11.5"/><ellipse class="cls-16" cx="187.43" cy="668.16" rx="30.5" ry="11.5"/><ellipse class="cls-8" cx="119.23" cy="71.86" rx="99.5" ry="17.86"/><path class="cls-8" d="m65.79,32.14h105.85c.6,0,1.09.49,1.09,1.09v29.3c0,4.91-3.99,8.89-8.89,8.89h-90.14c-4.97,0-9-4.03-9-9v-29.2c0-.6.49-1.09,1.09-1.09Z"/><ellipse class="cls-8" cx="118.34" cy="32.43" rx="53.65" ry="5.06"/></svg>