<?xml version="1.0" encoding="UTF-8"?><svg id="Layer_1" xmlns="http://www.w3.org/2000/svg" width="170" height="150" xmlns:xlink="http://www.w3.org/1999/xlink" viewBox="0 0 170 150"><defs><style>.cls-1{fill:#f9f491;filter:url(#outer-glow-1);}.cls-1,.cls-2,.cls-3,.cls-4,.cls-5,.cls-6,.cls-7,.cls-8,.cls-9,.cls-10,.cls-11,.cls-12,.cls-13,.cls-14,.cls-15,.cls-16,.cls-17,.cls-18,.cls-19,.cls-20,.cls-21,.cls-22,.cls-23,.cls-24,.cls-25,.cls-26,.cls-27,.cls-28,.cls-29,.cls-30,.cls-31,.cls-32,.cls-33,.cls-34,.cls-35,.cls-36,.cls-37,.cls-38,.cls-39,.cls-40,.cls-41,.cls-42,.cls-43,.cls-44{stroke-width:0px;}.cls-2{fill:#f4d4da;}.cls-3{fill:#f3d0d6;}.cls-4{fill:#d2556d;}.cls-5{fill:#c72c4a;}.cls-6{fill:#c8304d;}.cls-7{fill:#c62846;}.cls-8{fill:#d15169;}.cls-9{fill:#d35970;}.cls-10{fill:#d45d74;}.cls-11{fill:#cd415b;}.cls-12{fill:#de8294;}.cls-13{fill:#cb3c58;}.cls-14{fill:#ce455f;}.cls-15{fill:#da7285;}.cls-16{fill:#d86a7e;}.cls-17{fill:#c93451;}.cls-18{fill:#d56177;}.cls-19{fill:#dc7a8c;}.cls-20{fill:#df8697;}.cls-21{fill:#e292a2;}.cls-22{fill:#ca3854;}.cls-23{fill:#e08a9b;}.cls-24{fill:#d6657b;}.cls-25{fill:#e18e9e;}.cls-26{fill:#dd7e90;}.cls-27{fill:#db7689;}.cls-28{fill:#d96e82;}.cls-29{fill:#d04d66;}.cls-30{fill:#cf4962;}.cls-31{fill:#efc0c8;}.cls-32{fill:#f2ccd3;}.cls-33{fill:#e497a5;}.cls-34{fill:#e7a3b0;}.cls-35{fill:#e9abb7;}.cls-36{fill:#e59ba9;}.cls-37{fill:#f0c4cc;}.cls-38{fill:#e69fac;}.cls-39{fill:#edbbc5;}.cls-40{fill:#ebb3be;}.cls-41{fill:#ecb7c1;}.cls-42{fill:#f1c8cf;}.cls-43{fill:#e8a7b3;}.cls-44{fill:#eaafba;}</style><filter id="outer-glow-1" filterUnits="userSpaceOnUse"><feOffset dx="0" dy="0"/><feGaussianBlur result="blur" stdDeviation="79.37"/><feFlood flood-color="#f9f2f2" flood-opacity=".85"/><feComposite in2="blur" operator="in"/><feComposite in="SourceGraphic"/></filter></defs><path class="cls-7" d="m85.06,144.98s58.54-39.8,74.3-68.4l3.49-6.41c2.66-5.87,4.19-12.4,4.19-19.31,0-25.32-19.97-45.85-44.6-45.85-15.71,0-29.49,8.36-37.43,20.97-7.95-12.61-21.73-20.97-37.43-20.97C22.93,5.02,2.97,25.55,2.97,50.87c0,6.91,1.53,13.43,4.19,19.31l3.49,6.41c15.76,28.6,74.3,68.4,74.3,68.4h.11Z"/><path class="cls-5" d="m85.06,144.32s57.88-39.42,73.46-67.75l3.45-6.35c2.63-5.82,4.14-12.28,4.14-19.12,0-25.08-19.74-45.41-44.1-45.41-15.53,0-29.16,8.28-37.01,20.78-7.86-12.49-21.48-20.78-37.01-20.78C23.63,5.68,3.89,26.01,3.89,51.09c0,6.84,1.51,13.31,4.14,19.12l3.45,6.35c15.59,28.33,73.46,67.75,73.46,67.75h.11Z"/><path class="cls-6" d="m85.05,143.66s57.22-39.04,72.63-67.1l3.41-6.29c2.6-5.76,4.1-12.17,4.1-18.94,0-24.84-19.52-44.98-43.6-44.98-15.35,0-28.82,8.21-36.59,20.58-7.77-12.37-21.24-20.58-36.59-20.58C24.33,6.34,4.81,26.48,4.81,51.32c0,6.78,1.49,13.18,4.1,18.94l3.41,6.29c15.41,28.06,72.63,67.1,72.63,67.1h.11Z"/><path class="cls-17" d="m85.05,142.99s56.56-38.67,71.79-66.46l3.37-6.23c2.57-5.71,4.05-12.05,4.05-18.76,0-24.6-19.29-44.54-43.09-44.54-15.17,0-28.49,8.13-36.17,20.38-7.68-12.25-20.99-20.38-36.17-20.38C25.03,7.01,5.74,26.95,5.74,51.55c0,6.71,1.48,13.05,4.05,18.76l3.37,6.23c15.23,27.79,71.79,66.46,71.79,66.46h.11Z"/><path class="cls-22" d="m85.05,142.33s55.9-38.29,70.95-65.81l3.33-6.17c2.54-5.65,4-11.93,4-18.58,0-24.36-19.07-44.11-42.59-44.11-15,0-28.16,8.05-35.75,20.18-7.59-12.13-20.75-20.18-35.75-20.18C25.73,7.67,6.66,27.42,6.66,51.78c0,6.65,1.46,12.92,4,18.58l3.33,6.17c15.05,27.52,70.95,65.81,70.95,65.81h.11Z"/><path class="cls-13" d="m85.05,141.67s55.24-37.91,70.12-65.16l3.29-6.11c2.51-5.6,3.95-11.81,3.95-18.39,0-24.12-18.84-43.68-42.09-43.68-14.82,0-27.83,7.97-35.33,19.98-7.5-12.01-20.51-19.98-35.33-19.98C26.43,8.33,7.58,27.89,7.58,52.01c0,6.58,1.44,12.8,3.95,18.39l3.29,6.11c14.88,27.25,70.12,65.16,70.12,65.16h.11Z"/><path class="cls-11" d="m85.05,141.01s54.58-37.54,69.28-64.51l3.25-6.04c2.48-5.54,3.91-11.7,3.91-18.21,0-23.88-18.62-43.24-41.59-43.24-14.64,0-27.5,7.89-34.9,19.78-7.41-11.89-20.26-19.78-34.9-19.78-22.97,0-41.59,19.36-41.59,43.24,0,6.52,1.43,12.67,3.91,18.21l3.25,6.04c14.7,26.98,69.28,64.51,69.28,64.51h.1Z"/><path class="cls-14" d="m85.05,140.34s53.92-37.16,68.44-63.87l3.21-5.98c2.45-5.49,3.86-11.58,3.86-18.03,0-23.64-18.39-42.81-41.09-42.81-14.47,0-27.16,7.81-34.48,19.59-7.32-11.78-20.02-19.59-34.48-19.59-22.69,0-41.09,19.17-41.09,42.81,0,6.45,1.41,12.54,3.86,18.03l3.21,5.98c14.52,26.71,68.44,63.87,68.44,63.87h.1Z"/><path class="cls-30" d="m85.05,139.68s53.26-36.78,67.61-63.22l3.17-5.92c2.42-5.43,3.81-11.46,3.81-17.85,0-23.4-18.17-42.37-40.58-42.37-14.29,0-26.83,7.73-34.06,19.39-7.23-11.66-19.77-19.39-34.06-19.39-22.41,0-40.58,18.97-40.58,42.37,0,6.38,1.39,12.42,3.81,17.85l3.17,5.92c14.34,26.44,67.61,63.22,67.61,63.22h.1Z"/><path class="cls-29" d="m85.05,139.02s52.6-36.41,66.77-62.57l3.13-5.86c2.39-5.37,3.77-11.34,3.77-17.66,0-23.16-17.94-41.94-40.08-41.94-14.11,0-26.5,7.65-33.64,19.19-7.14-11.54-19.53-19.19-33.64-19.19-22.14,0-40.08,18.78-40.08,41.94,0,6.32,1.37,12.29,3.77,17.66l3.13,5.86c14.17,26.17,66.77,62.57,66.77,62.57h.1Z"/><path class="cls-8" d="m85.05,138.36s51.95-36.03,65.93-61.92l3.09-5.8c2.36-5.32,3.72-11.23,3.72-17.48,0-22.92-17.72-41.51-39.58-41.51-13.94,0-26.17,7.57-33.22,18.99-7.05-11.42-19.28-18.99-33.22-18.99-21.86,0-39.58,18.58-39.58,41.51,0,6.25,1.36,12.16,3.72,17.48l3.09,5.8c13.99,25.9,65.93,61.92,65.93,61.92h.1Z"/><path class="cls-4" d="m85.05,137.69s51.29-35.65,65.1-61.28l3.06-5.74c2.33-5.26,3.67-11.11,3.67-17.3,0-22.68-17.5-41.07-39.08-41.07-13.76,0-25.84,7.49-32.8,18.79-6.96-11.3-19.04-18.79-32.8-18.79-21.58,0-39.08,18.39-39.08,41.07,0,6.19,1.34,12.03,3.67,17.3l3.06,5.74c13.81,25.63,65.1,61.28,65.1,61.28h.1Z"/><path class="cls-9" d="m85.05,137.03s50.63-35.28,64.26-60.63l3.02-5.68c2.3-5.21,3.62-10.99,3.62-17.11,0-22.44-17.27-40.64-38.57-40.64-13.58,0-25.5,7.41-32.38,18.59-6.87-11.18-18.79-18.59-32.38-18.59-21.3,0-38.57,18.19-38.57,40.64,0,6.12,1.32,11.91,3.62,17.11l3.02,5.68c13.63,25.35,64.26,60.63,64.26,60.63h.1Z"/><path class="cls-10" d="m85.05,136.37s49.97-34.9,63.42-59.98l2.98-5.62c2.27-5.15,3.58-10.87,3.58-16.93,0-22.2-17.05-40.2-38.07-40.2-13.41,0-25.17,7.33-31.95,18.39-6.78-11.06-18.55-18.39-31.95-18.39-21.03,0-38.07,18-38.07,40.2,0,6.06,1.3,11.78,3.58,16.93l2.98,5.62c13.46,25.08,63.42,59.98,63.42,59.98h.1Z"/><path class="cls-18" d="m85.05,135.71s49.31-34.52,62.59-59.34l2.94-5.56c2.24-5.1,3.53-10.76,3.53-16.75,0-21.96-16.82-39.77-37.57-39.77-13.23,0-24.84,7.26-31.53,18.2-6.69-10.94-18.3-18.2-31.53-18.2-20.75,0-37.57,17.81-37.57,39.77,0,5.99,1.29,11.65,3.53,16.75l2.94,5.56c13.28,24.81,62.59,59.34,62.59,59.34h.09Z"/><path class="cls-24" d="m85.05,135.04s48.65-34.14,61.75-58.69l2.9-5.5c2.21-5.04,3.48-10.64,3.48-16.57,0-21.72-16.6-39.34-37.07-39.34-13.05,0-24.51,7.18-31.11,18-6.6-10.82-18.06-18-31.11-18-20.47,0-37.07,17.61-37.07,39.34,0,5.93,1.27,11.53,3.48,16.57l2.9,5.5c13.1,24.54,61.75,58.69,61.75,58.69h.09Z"/><path class="cls-16" d="m85.05,134.38s47.99-33.77,60.92-58.04l2.86-5.44c2.18-4.98,3.44-10.52,3.44-16.38,0-21.49-16.37-38.9-36.57-38.9-12.88,0-24.17,7.1-30.69,17.8-6.51-10.7-17.81-17.8-30.69-17.8-20.19,0-36.57,17.42-36.57,38.9,0,5.86,1.25,11.4,3.44,16.38l2.86,5.44c12.92,24.27,60.92,58.04,60.92,58.04h.09Z"/><path class="cls-28" d="m85.05,133.72s47.33-33.39,60.08-57.39l2.82-5.38c2.15-4.93,3.39-10.4,3.39-16.2,0-21.25-16.15-38.47-36.06-38.47-12.7,0-23.84,7.02-30.27,17.6-6.43-10.58-17.57-17.6-30.27-17.6-19.92,0-36.06,17.22-36.06,38.47,0,5.8,1.24,11.27,3.39,16.2l2.82,5.38c12.75,24,60.08,57.39,60.08,57.39h.09Z"/><path class="cls-15" d="m85.04,133.06s46.67-33.01,59.24-56.75l2.78-5.32c2.12-4.87,3.34-10.29,3.34-16.02,0-21.01-15.92-38.03-35.56-38.03-12.52,0-23.51,6.94-29.85,17.4-6.34-10.46-17.32-17.4-29.85-17.4-19.64,0-35.56,17.03-35.56,38.03,0,5.73,1.22,11.14,3.34,16.02l2.78,5.32c12.57,23.73,59.24,56.75,59.24,56.75h.09Z"/><path class="cls-27" d="m85.04,132.39s46.01-32.64,58.41-56.1l2.74-5.26c2.09-4.82,3.29-10.17,3.29-15.83,0-20.77-15.7-37.6-35.06-37.6-12.35,0-23.18,6.86-29.43,17.2-6.25-10.34-17.08-17.2-29.43-17.2-19.36,0-35.06,16.83-35.06,37.6,0,5.66,1.2,11.02,3.29,15.83l2.74,5.26c12.39,23.46,58.41,56.1,58.41,56.1h.09Z"/><path class="cls-19" d="m85.04,131.73s45.35-32.26,57.57-55.45l2.7-5.2c2.06-4.76,3.25-10.05,3.25-15.65,0-20.53-15.47-37.17-34.56-37.17-12.17,0-22.85,6.78-29,17-6.16-10.22-16.84-17-29-17-19.09,0-34.56,16.64-34.56,37.17,0,5.6,1.18,10.89,3.25,15.65l2.7,5.2c12.21,23.19,57.57,55.45,57.57,55.45h.09Z"/><path class="cls-26" d="m85.04,131.07s44.7-31.88,56.73-54.8l2.66-5.13c2.03-4.71,3.2-9.93,3.2-15.47,0-20.29-15.25-36.73-34.05-36.73-11.99,0-22.51,6.7-28.58,16.81-6.07-10.1-16.59-16.81-28.58-16.81-18.81,0-34.05,16.45-34.05,36.73,0,5.53,1.17,10.76,3.2,15.47l2.66,5.13c12.04,22.92,56.73,54.8,56.73,54.8h.09Z"/><path class="cls-12" d="m85.04,130.3s44.16-31.45,56.05-54.06l2.63-5.06c2.01-4.64,3.16-9.8,3.16-15.26,0-20.01-15.06-36.23-33.65-36.23-11.85,0-22.25,6.61-28.24,16.58-6-9.97-16.39-16.58-28.24-16.58-18.58,0-33.65,16.22-33.65,36.23,0,5.46,1.15,10.62,3.16,15.26l2.63,5.06c11.89,22.61,56.05,54.06,56.05,54.06h.08Z"/><path class="cls-20" d="m85.04,129.54s43.63-31.02,55.38-53.31l2.6-4.99c1.98-4.58,3.12-9.66,3.12-15.05,0-19.73-14.88-35.73-33.24-35.73-11.71,0-21.98,6.52-27.9,16.35-5.92-9.83-16.19-16.35-27.9-16.35-18.36,0-33.24,16-33.24,35.73,0,5.38,1.14,10.47,3.12,15.05l2.6,4.99c11.75,22.29,55.38,53.31,55.38,53.31h.08Z"/><path class="cls-23" d="m85.04,128.78s43.09-30.58,54.7-52.56l2.57-4.92c1.96-4.51,3.08-9.53,3.08-14.84,0-19.46-14.7-35.23-32.83-35.23-11.56,0-21.71,6.43-27.56,16.12-5.85-9.69-16-16.12-27.56-16.12-18.13,0-32.83,15.77-32.83,35.23,0,5.31,1.13,10.32,3.08,14.84l2.57,4.92c11.61,21.98,54.7,52.56,54.7,52.56h.08Z"/><path class="cls-25" d="m85.04,128.01s42.56-30.15,54.02-51.81l2.54-4.85c1.93-4.45,3.05-9.39,3.05-14.63,0-19.18-14.52-34.73-32.43-34.73-11.42,0-21.44,6.34-27.22,15.89-5.78-9.55-15.8-15.89-27.22-15.89-17.91,0-32.43,15.55-32.43,34.73,0,5.23,1.11,10.18,3.05,14.63l2.54,4.85c11.46,21.67,54.02,51.81,54.02,51.81h.08Z"/><path class="cls-21" d="m85.04,127.25s42.03-29.71,53.34-51.07l2.5-4.78c1.91-4.39,3.01-9.26,3.01-14.41,0-18.9-14.34-34.23-32.02-34.23-11.28,0-21.17,6.24-26.88,15.66-5.71-9.42-15.6-15.66-26.88-15.66-17.68,0-32.02,15.32-32.02,34.23,0,5.16,1.1,10.03,3.01,14.41l2.5,4.78c11.32,21.36,53.34,51.07,53.34,51.07h.08Z"/><path class="cls-33" d="m85.04,126.48s41.49-29.28,52.67-50.32l2.47-4.71c1.89-4.32,2.97-9.12,2.97-14.2,0-18.63-14.15-33.73-31.61-33.73-11.13,0-20.9,6.15-26.53,15.43-5.63-9.28-15.4-15.43-26.53-15.43-17.46,0-31.61,15.1-31.61,33.73,0,5.08,1.08,9.88,2.97,14.2l2.47,4.71c11.17,21.04,52.67,50.32,52.67,50.32h.08Z"/><path class="cls-36" d="m85.04,125.72s40.96-28.84,51.99-49.57l2.44-4.64c1.86-4.26,2.93-8.99,2.93-13.99,0-18.35-13.97-33.23-31.21-33.23-10.99,0-20.63,6.06-26.19,15.2-5.56-9.14-15.2-15.2-26.19-15.2-17.24,0-31.21,14.88-31.21,33.23,0,5.01,1.07,9.74,2.93,13.99l2.44,4.64c11.03,20.73,51.99,49.57,51.99,49.57h.08Z"/><path class="cls-38" d="m85.04,124.95s40.42-28.41,51.31-48.83l2.41-4.57c1.84-4.19,2.89-8.85,2.89-13.78,0-18.07-13.79-32.73-30.8-32.73-10.85,0-20.36,5.97-25.85,14.97-5.49-9-15-14.97-25.85-14.97-17.01,0-30.8,14.65-30.8,32.73,0,4.93,1.06,9.59,2.89,13.78l2.41,4.57c10.89,20.42,51.31,48.83,51.31,48.83h.08Z"/><path class="cls-34" d="m85.04,124.19s39.89-27.97,50.63-48.08l2.38-4.5c1.81-4.13,2.86-8.72,2.86-13.57,0-17.8-13.61-32.23-30.39-32.23-10.7,0-20.09,5.88-25.51,14.74-5.42-8.86-14.81-14.74-25.51-14.74-16.79,0-30.39,14.43-30.39,32.23,0,4.86,1.04,9.44,2.86,13.57l2.38,4.5c10.74,20.11,50.63,48.08,50.63,48.08h.08Z"/><path class="cls-43" d="m85.04,123.43s39.36-27.54,49.95-47.33l2.34-4.43c1.79-4.06,2.82-8.58,2.82-13.36,0-17.52-13.43-31.72-29.99-31.72-10.56,0-19.83,5.79-25.17,14.51-5.34-8.73-14.61-14.51-25.17-14.51-16.56,0-29.99,14.2-29.99,31.72,0,4.78,1.03,9.3,2.82,13.36l2.34,4.43c10.6,19.79,49.95,47.33,49.95,47.33h.08Z"/><path class="cls-35" d="m85.04,122.66s38.82-27.1,49.28-46.58l2.31-4.36c1.76-4,2.78-8.45,2.78-13.15,0-17.24-13.24-31.22-29.58-31.22-10.42,0-19.56,5.7-24.83,14.29-5.27-8.59-14.41-14.29-24.83-14.29-16.34,0-29.58,13.98-29.58,31.22,0,4.7,1.01,9.15,2.78,13.15l2.31,4.36c10.46,19.48,49.28,46.58,49.28,46.58h.07Z"/><path class="cls-44" d="m85.04,121.9s38.29-26.67,48.6-45.84l2.28-4.29c1.74-3.94,2.74-8.31,2.74-12.94,0-16.97-13.06-30.72-29.17-30.72-10.27,0-19.29,5.6-24.48,14.06-5.2-8.45-14.21-14.06-24.48-14.06-16.11,0-29.17,13.76-29.17,30.72,0,4.63,1,9,2.74,12.94l2.28,4.29c10.31,19.17,48.6,45.84,48.6,45.84h.07Z"/><path class="cls-40" d="m85.04,121.13s37.75-26.23,47.92-45.09l2.25-4.22c1.72-3.87,2.7-8.17,2.7-12.73,0-16.69-12.88-30.22-28.77-30.22-10.13,0-19.02,5.51-24.14,13.83-5.13-8.31-14.01-13.83-24.14-13.83-15.89,0-28.77,13.53-28.77,30.22,0,4.55.99,8.86,2.7,12.73l2.25,4.22c10.17,18.86,47.92,45.09,47.92,45.09h.07Z"/><path class="cls-41" d="m85.04,120.37s37.22-25.8,47.24-44.34l2.22-4.15c1.69-3.81,2.66-8.04,2.66-12.52,0-16.41-12.7-29.72-28.36-29.72-9.99,0-18.75,5.42-23.8,13.6-5.05-8.18-13.82-13.6-23.8-13.6-15.66,0-28.36,13.31-28.36,29.72,0,4.48.97,8.71,2.66,12.52l2.22,4.15c10.02,18.54,47.24,44.34,47.24,44.34h.07Z"/><path class="cls-39" d="m85.04,119.6s36.69-25.36,46.57-43.6l2.19-4.08c1.67-3.74,2.63-7.9,2.63-12.31,0-16.14-12.51-29.22-27.95-29.22-9.84,0-18.48,5.33-23.46,13.37-4.98-8.04-13.62-13.37-23.46-13.37-15.44,0-27.95,13.08-27.95,29.22,0,4.4.96,8.56,2.63,12.31l2.19,4.08c9.88,18.23,46.57,43.6,46.57,43.6h.07Z"/><path class="cls-31" d="m85.03,118.84s36.15-24.93,45.89-42.85l2.15-4.01c1.64-3.68,2.59-7.77,2.59-12.09,0-15.86-12.33-28.72-27.55-28.72-9.7,0-18.21,5.24-23.12,13.14-4.91-7.9-13.42-13.14-23.12-13.14-15.21,0-27.55,12.86-27.55,28.72,0,4.33.94,8.41,2.59,12.09l2.15,4.01c9.74,17.92,45.89,42.85,45.89,42.85h.07Z"/><path class="cls-37" d="m85.03,118.07s35.62-24.49,45.21-42.1l2.12-3.94c1.62-3.62,2.55-7.63,2.55-11.88,0-15.58-12.15-28.22-27.14-28.22-9.56,0-17.94,5.15-22.78,12.91-4.84-7.76-13.22-12.91-22.78-12.91-14.99,0-27.14,12.63-27.14,28.22,0,4.25.93,8.27,2.55,11.88l2.12,3.94c9.59,17.61,45.21,42.1,45.21,42.1h.07Z"/><path class="cls-42" d="m85.03,117.31s35.08-24.06,44.53-41.35l2.09-3.87c1.6-3.55,2.51-7.5,2.51-11.67,0-15.31-11.97-27.72-26.73-27.72-9.41,0-17.67,5.06-22.44,12.68-4.76-7.62-13.02-12.68-22.44-12.68-14.76,0-26.73,12.41-26.73,27.72,0,4.18.92,8.12,2.51,11.67l2.09,3.87c9.45,17.29,44.53,41.35,44.53,41.35h.07Z"/><path class="cls-32" d="m85.03,116.55s34.55-23.63,43.86-40.61l2.06-3.8c1.57-3.49,2.47-7.36,2.47-11.46,0-15.03-11.79-27.22-26.32-27.22-9.27,0-17.4,4.97-22.09,12.45-4.69-7.49-12.82-12.45-22.09-12.45-14.54,0-26.32,12.19-26.32,27.22,0,4.1.9,7.97,2.47,11.46l2.06,3.8c9.3,16.98,43.86,40.61,43.86,40.61h.07Z"/><path class="cls-3" d="m85.03,115.78s34.02-23.19,43.18-39.86l2.03-3.73c1.55-3.42,2.43-7.23,2.43-11.25,0-14.76-11.6-26.72-25.92-26.72-9.13,0-17.14,4.87-21.75,12.22-4.62-7.35-12.63-12.22-21.75-12.22-14.31,0-25.92,11.96-25.92,26.72,0,4.03.89,7.83,2.43,11.25l2.03,3.73c9.16,16.67,43.18,39.86,43.18,39.86h.07Z"/><path class="cls-2" d="m85.03,115.02s33.48-22.76,42.5-39.11l1.99-3.66c1.52-3.36,2.4-7.09,2.4-11.04,0-14.48-11.42-26.22-25.51-26.22-8.98,0-16.87,4.78-21.41,11.99-4.55-7.21-12.43-11.99-21.41-11.99-14.09,0-25.51,11.74-25.51,26.22,0,3.95.87,7.68,2.4,11.04l1.99,3.66c9.02,16.36,42.5,39.11,42.5,39.11h.06Z"/><polygon class="cls-1" points="-14.54 452.76 -69.14 413.44 -122.21 452.81 -102.88 389.13 -157.48 349.81 -90.93 349.78 -71.6 286.11 -49.81 349.76 16.74 349.74 -36.33 389.11 -14.54 452.76"/></svg>