<?xml version="1.0" encoding="UTF-8"?><svg id="Layer_1" xmlns="http://www.w3.org/2000/svg" width="316.21" height="326.09" viewBox="0 0 316.21 326.09"><defs><style>.cls-1{fill:#f3ea7d;}.cls-1,.cls-2,.cls-3,.cls-4,.cls-5,.cls-6,.cls-7,.cls-8,.cls-9,.cls-10,.cls-11,.cls-12,.cls-13,.cls-14,.cls-15,.cls-16,.cls-17,.cls-18,.cls-19,.cls-20,.cls-21,.cls-22,.cls-23,.cls-24,.cls-25,.cls-26,.cls-27,.cls-28,.cls-29,.cls-30,.cls-31,.cls-32,.cls-33,.cls-34,.cls-35,.cls-36,.cls-37,.cls-38,.cls-39,.cls-40,.cls-41,.cls-42,.cls-43,.cls-44{stroke-width:0px;}.cls-2{fill:#f7f1a8;}.cls-3{fill:#f8c323;}.cls-4{fill:#f2e872;}.cls-5{fill:#f4ca21;}.cls-6{fill:#f7c522;}.cls-7{fill:#f6ef9d;}.cls-8{fill:#f9f4be;}.cls-9{fill:#f9c224;}.cls-10{fill:#fac024;}.cls-11{fill:#f8f3b3;}.cls-12{fill:#d64989;}.cls-13{fill:#fdfbe9;}.cls-14{fill:#feba26;}.cls-15{fill:#ecde31;}.cls-16{fill:#f1e667;}.cls-17{fill:#f2cd20;}.cls-18{fill:#f3cb20;}.cls-19{fill:#fff;}.cls-20{fill:#ebd81c;}.cls-21{fill:#eddf3c;}.cls-22{fill:#eada1b;}.cls-23{fill:#f5c821;}.cls-24{fill:#eed41d;}.cls-25{fill:#f0d01e;}.cls-26{fill:#efe351;}.cls-27{fill:#faf6c9;}.cls-28{fill:#ebdc26;}.cls-29{fill:#fcfade;}.cls-30{fill:#fdbb26;}.cls-31{fill:#edd51d;}.cls-32{fill:#ffb827;}.cls-33{fill:#fefdf4;}.cls-34{fill:#fcbd25;}.cls-35{fill:#fbf8d4;}.cls-36{fill:#eee146;}.cls-37{fill:#ecd71c;}.cls-38{fill:#efd21e;}.cls-39{fill:#f0e55c;}.cls-40{fill:#f1cf1f;}.cls-41{fill:#fbbe25;}.cls-42{fill:#f5ed92;}.cls-43{fill:#f6c722;}.cls-44{fill:#f4ec88;}</style></defs><path class="cls-19" d="m89.75,192.99c0-57.83-62.95-11.2-3.31,2.45-59.63-13.65-35.59,61.8,1.27,3.97-36.86,57.83,40.95,57.83,4.1,0,36.86,57.83,60.9-17.62,1.27-3.97,59.63-13.65-3.31-60.28-3.31-2.45Z"/><path class="cls-33" d="m89.75,193.07c0-56.44-61.37-10.93-3.23,2.4-58.14-13.32-34.7,60.31,1.23,3.88-35.93,56.44,39.92,56.44,3.99,0,35.93,56.44,59.37-17.2,1.23-3.88,58.14-13.32-3.23-58.83-3.23-2.4Z"/><path class="cls-13" d="m89.75,193.15c0-55.05-59.79-10.66-3.15,2.34-56.64-12.99-33.81,58.83,1.2,3.78-35.01,55.05,38.9,55.05,3.89,0,35.01,55.05,57.85-16.77,1.2-3.78,56.64-12.99-3.15-57.38-3.15-2.34Z"/><path class="cls-29" d="m89.75,193.23c0-53.65-58.21-10.39-3.06,2.28-55.15-12.67-32.91,57.34,1.17,3.68-34.08,53.65,37.87,53.65,3.79,0,34.08,53.65,56.32-16.35,1.17-3.68,55.15-12.67-3.06-55.93-3.06-2.28Z"/><path class="cls-35" d="m89.75,193.3c0-52.26-56.63-10.12-2.98,2.22-53.65-12.34-32.02,55.85,1.14,3.59-33.16,52.26,36.84,52.26,3.68,0,33.16,52.26,54.79-15.93,1.14-3.59,53.65-12.34-2.98-54.48-2.98-2.22Z"/><path class="cls-27" d="m89.75,193.38c0-50.87-55.06-9.85-2.9,2.16-52.16-12.01-31.13,54.37,1.11,3.49-32.24,50.87,35.82,50.87,3.58,0,32.24,50.87,53.26-15.5,1.11-3.49,52.16-12.01-2.9-53.03-2.9-2.16Z"/><path class="cls-8" d="m89.75,193.46c0-49.48-53.48-9.58-2.81,2.1-50.66-11.68-30.24,52.88,1.08,3.4-31.31,49.48,34.79,49.48,3.48,0,31.31,49.48,51.74-15.08,1.08-3.4,50.66-11.68-2.81-51.58-2.81-2.1Z"/><path class="cls-11" d="m89.75,193.53c0-48.09-51.9-9.31-2.73,2.04-49.17-11.35-29.34,51.39,1.04,3.3-30.39,48.09,33.76,48.09,3.38,0,30.39,48.09,50.21-14.65,1.04-3.3,49.17-11.35-2.73-50.13-2.73-2.04Z"/><path class="cls-2" d="m89.75,193.61c0-46.7-50.32-9.04-2.65,1.98-47.67-11.02-28.45,49.91,1.01,3.21-29.46,46.7,32.74,46.7,3.27,0,29.46,46.7,48.68-14.23,1.01-3.21,47.67-11.02-2.65-48.68-2.65-1.98Z"/><path class="cls-7" d="m89.75,193.69c0-45.31-48.74-8.77-2.57,1.92-46.18-10.7-27.56,48.42.98,3.11-28.54,45.31,31.71,45.31,3.17,0,28.54,45.31,47.16-13.81.98-3.11,46.18-10.7-2.57-47.23-2.57-1.92Z"/><path class="cls-42" d="m89.75,193.77c0-43.92-47.16-8.5-2.48,1.86-44.68-10.37-26.67,46.93.95,3.02-27.61,43.92,30.68,43.92,3.07,0,27.61,43.92,45.63-13.38.95-3.02,44.68-10.37-2.48-45.78-2.48-1.86Z"/><path class="cls-44" d="m89.75,193.84c0-42.52-45.58-8.23-2.4,1.8-43.19-10.04-25.77,45.44.92,2.92-26.69,42.52,29.66,42.52,2.97,0,26.69,42.52,44.1-12.96.92-2.92,43.19-10.04-2.4-44.33-2.4-1.8Z"/><path class="cls-1" d="m89.75,193.92c0-41.13-44.01-7.96-2.32,1.75-41.69-9.71-24.88,43.96.88,2.82-25.77,41.13,28.63,41.13,2.86,0,25.77,41.13,42.58-12.53.88-2.82,41.69-9.71-2.32-42.88-2.32-1.75Z"/><path class="cls-4" d="m89.75,194c0-39.74-42.43-7.7-2.23,1.69-40.2-9.38-23.99,42.47.85,2.73-24.84,39.74,27.6,39.74,2.76,0,24.84,39.74,41.05-12.11.85-2.73,40.2-9.38-2.23-41.43-2.23-1.69Z"/><path class="cls-16" d="m89.75,194.08c0-38.35-40.85-7.43-2.15,1.63-38.7-9.05-23.1,40.98.82,2.63-23.92,38.35,26.58,38.35,2.66,0,23.92,38.35,39.52-11.69.82-2.63,38.7-9.05-2.15-39.98-2.15-1.63Z"/><path class="cls-39" d="m89.75,194.15c0-36.96-39.27-7.16-2.07,1.57-37.2-8.73-22.2,39.5.79,2.54-22.99,36.96,25.55,36.96,2.55,0,22.99,36.96,37.99-11.26.79-2.54,37.2-8.73-2.07-38.53-2.07-1.57Z"/><path class="cls-26" d="m89.75,194.23c0-35.57-37.69-6.89-1.98,1.51-35.71-8.4-21.31,38.01.76,2.44-22.07,35.57,24.52,35.57,2.45,0,22.07,35.57,36.47-10.84.76-2.44,35.71-8.4-1.98-37.08-1.98-1.51Z"/><path class="cls-36" d="m89.75,194.31c0-34.18-36.11-6.62-1.9,1.45-34.21-8.07-20.42,36.52.73,2.35-21.15,34.18,23.49,34.18,2.35,0,21.15,34.18,34.94-10.42.73-2.35,34.21-8.07-1.9-35.63-1.9-1.45Z"/><path class="cls-21" d="m89.75,194.39c0-32.79-34.54-6.35-1.82,1.39-32.72-7.74-19.53,35.04.69,2.25-20.22,32.79,22.47,32.79,2.25,0,20.22,32.79,33.41-9.99.69-2.25,32.72-7.74-1.82-34.18-1.82-1.39Z"/><path class="cls-15" d="m89.75,194.46c0-31.4-32.96-6.08-1.73,1.33-31.22-7.41-18.63,33.55.66,2.16-19.3,31.4,21.44,31.4,2.14,0,19.3,31.4,31.89-9.57.66-2.16,31.22-7.41-1.73-32.73-1.73-1.33Z"/><path class="cls-28" d="m89.75,194.54c0-30-31.38-5.81-1.65,1.27-29.73-7.08-17.74,32.06.63,2.06-18.37,30,20.41,30,2.04,0,18.37,30,30.36-9.14.63-2.06,29.73-7.08-1.65-31.28-1.65-1.27Z"/><path class="cls-22" d="m89.75,194.62c0-28.61-29.8-5.54-1.57,1.21-28.23-6.75-16.85,30.58.6,1.96-17.45,28.61,19.39,28.61,1.94,0,17.45,28.61,28.83-8.72.6-1.96,28.23-6.75-1.57-29.83-1.57-1.21Z"/><path class="cls-20" d="m89.75,194.67c0-27.69-28.89-5.36-1.52,1.18-27.37-6.54-16.34,29.59.58,1.9-16.92,27.69,18.8,27.69,1.88,0,16.92,27.69,27.95-8.44.58-1.9,27.37-6.54-1.52-28.86-1.52-1.18Z"/><path class="cls-37" d="m89.75,194.72c0-26.76-27.99-5.18-1.47,1.14-26.51-6.32-15.82,28.6.56,1.84-16.39,26.76,18.21,26.76,1.82,0,16.39,26.76,27.07-8.16.56-1.84,26.51-6.32-1.47-27.9-1.47-1.14Z"/><path class="cls-31" d="m89.75,194.77c0-25.84-27.08-5-1.43,1.1-25.65-6.1-15.31,27.62.54,1.77-15.85,25.84,17.62,25.84,1.76,0,15.85,25.84,26.2-7.87.54-1.77,25.65-6.1-1.43-26.94-1.43-1.1Z"/><path class="cls-24" d="m89.75,194.82c0-24.92-26.17-4.82-1.38,1.06-24.79-5.88-14.8,26.63.53,1.71-15.32,24.92,17.02,24.92,1.7,0,15.32,24.92,25.32-7.59.53-1.71,24.79-5.88-1.38-25.97-1.38-1.06Z"/><path class="cls-38" d="m89.75,194.87c0-23.99-25.26-4.65-1.33,1.02-23.93-5.66-14.28,25.64.51,1.65-14.79,23.99,16.43,23.99,1.64,0,14.79,23.99,24.44-7.31.51-1.65,23.93-5.66-1.33-25.01-1.33-1.02Z"/><path class="cls-25" d="m89.75,194.93c0-23.07-24.35-4.47-1.28.98-23.07-5.45-13.77,24.65.49,1.58-14.26,23.07,15.84,23.07,1.58,0,14.26,23.07,23.56-7.03.49-1.58,23.07-5.45-1.28-24.05-1.28-.98Z"/><path class="cls-40" d="m89.75,194.98c0-22.14-23.45-4.29-1.23.94-22.21-5.23-13.26,23.67.47,1.52-13.73,22.14,15.25,22.14,1.53,0,13.73,22.14,22.68-6.75.47-1.52,22.21-5.23-1.23-23.08-1.23-.94Z"/><path class="cls-17" d="m89.75,195.03c0-21.22-22.54-4.11-1.19.9-21.35-5.01-12.74,22.68.45,1.46-13.2,21.22,14.66,21.22,1.47,0,13.2,21.22,21.81-6.47.45-1.46,21.35-5.01-1.19-22.12-1.19-.9Z"/><path class="cls-18" d="m89.75,195.08c0-20.3-21.63-3.93-1.14.86-20.49-4.79-12.23,21.69.43,1.39-12.67,20.3,14.07,20.3,1.41,0,12.67,20.3,20.93-6.19.43-1.39,20.49-4.79-1.14-21.16-1.14-.86Z"/><path class="cls-5" d="m89.75,195.13c0-19.37-20.72-3.75-1.09.82-19.63-4.57-11.72,20.7.42,1.33-12.13,19.37,13.48,19.37,1.35,0,12.13,19.37,20.05-5.9.42-1.33,19.63-4.57-1.09-20.2-1.09-.82Z"/><path class="cls-23" d="m89.75,195.18c0-18.45-19.82-3.57-1.04.78-18.77-4.36-11.2,19.72.4,1.27-11.6,18.45,12.89,18.45,1.29,0,11.6,18.45,19.17-5.62.4-1.27,18.77-4.36-1.04-19.23-1.04-.78Z"/><path class="cls-43" d="m89.75,195.23c0-17.53-18.91-3.39-1,.74-17.91-4.14-10.69,18.73.38,1.2-11.07,17.53,12.3,17.53,1.23,0,11.07,17.53,18.29-5.34.38-1.2,17.91-4.14-1-18.27-1-.74Z"/><path class="cls-6" d="m89.75,195.28c0-16.6-18-3.21-.95.7-17.05-3.92-10.18,17.74.36,1.14-10.54,16.6,11.71,16.6,1.17,0,10.54,16.6,17.41-5.06.36-1.14,17.05-3.92-.95-17.31-.95-.7Z"/><path class="cls-3" d="m89.75,195.34c0-15.68-17.09-3.04-.9.67-16.19-3.7-9.66,16.75.34,1.08-10.01,15.68,11.12,15.68,1.11,0,10.01,15.68,16.54-4.78.34-1.08,16.19-3.7-.9-16.34-.9-.67Z"/><path class="cls-9" d="m89.75,195.39c0-14.75-16.18-2.86-.85.63-15.33-3.48-9.15,15.77.33,1.01-9.48,14.75,10.53,14.75,1.05,0,9.48,14.75,15.66-4.5.33-1.01,15.33-3.48-.85-15.38-.85-.63Z"/><path class="cls-10" d="m89.75,195.44c0-13.83-15.28-2.68-.8.59-14.47-3.26-8.64,14.78.31.95-8.94,13.83,9.94,13.83.99,0,8.94,13.83,14.78-4.21.31-.95,14.47-3.26-.8-14.42-.8-.59Z"/><path class="cls-41" d="m89.75,195.49c0-12.91-14.37-2.5-.76.55-13.61-3.05-8.12,13.79.29.89-8.41,12.91,9.35,12.91.93,0,8.41,12.91,13.9-3.93.29-.89,13.61-3.05-.76-13.45-.76-.55Z"/><path class="cls-34" d="m89.75,195.54c0-11.98-13.46-2.32-.71.51-12.75-2.83-7.61,12.8.27.82-7.88,11.98,8.76,11.98.88,0,7.88,11.98,13.02-3.65.27-.82,12.75-2.83-.71-12.49-.71-.51Z"/><path class="cls-30" d="m89.75,195.59c0-11.06-12.55-2.14-.66.47-11.89-2.61-7.1,11.82.25.76-7.35,11.06,8.17,11.06.82,0,7.35,11.06,12.15-3.37.25-.76,11.89-2.61-.66-11.53-.66-.47Z"/><path class="cls-14" d="m89.75,195.64c0-10.13-11.65-1.96-.61.43-11.03-2.39-6.58,10.83.23.7-6.82,10.13,7.58,10.13.76,0,6.82,10.13,11.27-3.09.23-.7,11.03-2.39-.61-10.56-.61-.43Z"/><path class="cls-32" d="m89.75,195.69c0-9.21-10.74-1.78-.57.39-10.17-2.17-6.07,9.84.22.63-6.29,9.21,6.99,9.21.7,0,6.29,9.21,10.39-2.81.22-.63,10.17-2.17-.57-9.6-.57-.39Z"/><path class="cls-12" d="m3.16,156.82c0-1.18.43-2.5,1.28-3.96s2.08-2.83,3.69-4.11c1.61-1.28,3.58-2.36,5.91-3.23,2.33-.87,4.95-1.31,7.88-1.31,3.61,0,6.68.81,9.22,2.42,2.54,1.61,4.61,3.78,6.21,6.5,1.6,2.72,2.77,5.86,3.51,9.42.74,3.56,1.11,7.29,1.11,11.19,0,1.49-.06,2.99-.17,4.5-.11,1.51-.28,2.96-.51,4.34-.23,1.38-.52,2.68-.87,3.88-.35,1.2-.75,2.19-1.21,2.96-.64-.72-1.26-1.24-1.87-1.58-.61-.33-1.15-.5-1.6-.5-.48,0-.86.21-1.16.62-.3.41-.44,1.28-.44,2.61,1.77.15,3.3.97,4.59,2.46,1.29,1.49,2.36,3.4,3.2,5.73.84,2.33,1.46,5,1.87,8,.41,3,.61,6.11.61,9.34,0,5.54-.51,10.22-1.53,14.07s-2.5,6.96-4.44,9.34c-1.94,2.38-4.32,4.11-7.15,5.19s-6.04,1.61-9.65,1.61c-2.59,0-4.82-.09-6.71-.27-1.88-.18-3.51-.47-4.87-.88-2.41-.72-4.16-2.45-5.26-5.19-1.1-2.74-1.65-6.96-1.65-12.65v-70.49Zm18.48,29.6c.07.1.18.17.32.19.15.03.24.04.29.04.54,0,.93-.38,1.16-1.15.23-.77.34-2.02.34-3.77v-.46c0-1.79-.1-3.1-.29-3.92-.19-.82-.55-1.23-1.07-1.23-.11,0-.25.03-.41.08-.16.05-.28.13-.37.23.02.41.03.85.03,1.31v8.69Zm0,28.98c.07.1.18.17.32.19.15.03.24.04.29.04.54,0,.93-.32,1.16-.96.23-.64.34-1.83.34-3.57v-1.46c0-1.79-.1-3.13-.29-4-.19-.87-.55-1.31-1.07-1.31-.11,0-.25.03-.41.08-.16.05-.28.13-.37.23.02.41.03.85.03,1.31v9.46Z"/><path class="cls-12" d="m155.99,239.61c-.93,1.84-2.25,3.51-3.97,5-1.71,1.49-3.77,2.23-6.18,2.23-1.27,0-2.5-.31-3.68-.92-1.18-.62-2.22-1.55-3.11-2.81-.9-1.25-1.61-2.84-2.14-4.77-.53-1.92-.8-4.19-.8-6.8v-49.51h-7.93c-.86-2.82-1.49-5.62-1.87-8.42-.39-2.79-.58-5.75-.58-8.88,0-2.36.09-4.5.27-6.42.18-1.92.42-3.64.71-5.15.29-1.51.63-2.84,1-4,.37-1.15.75-2.11,1.14-2.88h35.2c.64,2.2,1.17,4.95,1.62,8.23.44,3.28.66,6.59.66,9.92,0,3.13-.17,5.8-.49,8.03-.33,2.23-.78,4.05-1.36,5.46-.58,1.41-1.27,2.45-2.06,3.11-.79.67-1.67,1-2.62,1h-9.97c-.07.41-.1.8-.1,1.15,0,.46.05.83.14,1.11.09.28.28.53.56.73.28.21.68.35,1.19.42.51.08,1.19.12,2.03.12h2.35v54.04Z"/><path class="cls-12" d="m170.39,153.2c.88-1.28,1.88-2.45,3-3.5,1.11-1.05,2.29-1.93,3.52-2.65,1.24-.72,2.52-1.27,3.85-1.65,1.33-.38,2.66-.58,4-.58,1.77,0,3.52.36,5.26,1.08,1.74.72,3.32,1.84,4.75,3.38s2.65,3.52,3.68,5.96c1.02,2.43,1.71,5.34,2.08,8.73l7.76,72.49c-1.04,3.02-2.51,5.51-4.39,7.46-1.88,1.95-4.27,2.92-7.15,2.92-1.27,0-2.46-.26-3.57-.77-1.11-.51-2.09-1.27-2.94-2.27-.85-1-1.55-2.25-2.11-3.77-.56-1.51-.91-3.29-1.07-5.34l-.75-9.38c.7-.05,1.4-.24,2.09-.58.69-.33,1.32-.74,1.87-1.23.56-.49,1.01-1.04,1.36-1.65.35-.61.53-1.23.53-1.84,0-.82-.15-1.49-.44-2-.41.67-.88,1.27-1.43,1.81-.54.54-1.12.99-1.72,1.35-.6.36-1.2.63-1.8.81-.6.18-1.16.27-1.68.27-.98,0-1.84-.14-2.6-.42-.76-.28-1.42-.63-1.99-1.04-.57-.41-1.06-.86-1.46-1.35-.41-.49-.75-.96-1.02-1.42-.09.26-.17.55-.24.88-.07.33-.1.71-.1,1.11,0,.77.18,1.47.53,2.11.35.64.82,1.2,1.41,1.69.59.49,1.26.88,2.03,1.19.76.31,1.56.51,2.4.61.14,3.59.29,6.45.46,8.57.17,2.13.33,3.47.49,4.04-.2.87-.61,1.81-1.21,2.81-.6,1-1.35,1.94-2.25,2.81-.9.87-1.92,1.59-3.06,2.15-1.15.56-2.37.85-3.66.85-1.61,0-3.13-.41-4.56-1.23s-2.68-1.96-3.74-3.42c-1.07-1.46-1.92-3.23-2.55-5.3-.64-2.08-.95-4.39-.95-6.96,0-.56.01-1.14.03-1.73.02-.59.07-1.19.14-1.81l7.25-73.18Zm16,39.59c-.25-3.07-.45-5.53-.6-7.38-.15-1.84-.29-3.24-.44-4.19-.15-.95-.31-1.56-.48-1.84-.17-.28-.38-.42-.63-.42-.16,0-.31.05-.44.15-.14.1-.26.21-.37.31l1.29,15.53c.09.21.22.36.39.46.17.1.32.15.46.15.2,0,.4-.06.58-.19.18-.13.32-.24.41-.35l-.17-2.23Z"/><path class="cls-12" d="m230.13,151.59c.59-1.13,1.25-2.11,1.99-2.96.74-.85,1.52-1.55,2.33-2.11.82-.56,1.66-.99,2.52-1.27.86-.28,1.7-.42,2.52-.42,1.27,0,2.51.27,3.73.81,1.21.54,2.29,1.45,3.23,2.73.94,1.28,1.7,3,2.26,5.15.57,2.15.85,4.84.85,8.07v72.8c0,2.31-.26,4.25-.77,5.84-.51,1.59-1.19,2.86-2.04,3.81-.85.95-1.83,1.63-2.93,2.04-1.1.41-2.24.62-3.42.62-.73,0-1.46-.09-2.2-.27-.74-.18-1.44-.45-2.09-.81s-1.27-.77-1.84-1.23c-.57-.46-1.05-.97-1.46-1.54-.98-2.82-1.85-5.53-2.64-8.15s-1.5-5.12-2.16-7.53c-.66-2.41-1.27-4.7-1.84-6.88-.57-2.18-1.11-4.24-1.63-6.19-.39.1-.65.37-.78.81-.14.44-.21.96-.21,1.58,0,.77.09,1.53.27,2.27.18.74.42,1.65.71,2.73l4.25,15.53v4.07c-.34.51-.77,1.1-1.29,1.77-.52.67-1.16,1.29-1.92,1.88-.76.59-1.64,1.09-2.64,1.5-1,.41-2.14.62-3.44.62-1.48,0-2.84-.33-4.08-1s-2.33-1.65-3.23-2.96c-.91-1.31-1.61-2.93-2.11-4.88-.5-1.95-.75-4.2-.75-6.77v-77.03c0-1.28.25-2.5.75-3.65.5-1.15,1.18-2.14,2.04-2.96.86-.82,1.87-1.47,3.03-1.96,1.16-.49,2.39-.73,3.71-.73,1.5,0,2.88.41,4.15,1.23,1.27.82,2.24,1.82,2.89,3,.5,1.44,1.04,3.14,1.63,5.11.59,1.97,1.21,4.15,1.87,6.53.66,2.38,1.34,4.92,2.06,7.61s1.45,5.45,2.2,8.26c.23,0,.45-.17.66-.5.22-.33.32-.88.32-1.65,0-.56-.09-1.24-.27-2.04-.18-.79-.37-1.58-.58-2.34l-3.68-14.3v-4.23Z"/><path class="cls-12" d="m268,244.61c-1.71,1.49-3.77,2.23-6.18,2.23-1.27,0-2.5-.31-3.68-.92-1.18-.62-2.22-1.55-3.11-2.81-.9-1.25-1.61-2.84-2.14-4.77s-.8-4.19-.8-6.8v-79.41c.93-1.84,2.25-3.51,3.97-5,1.71-1.49,3.77-2.23,6.18-2.23,1.27,0,2.5.31,3.68.92,1.18.61,2.22,1.55,3.11,2.81.9,1.26,1.61,2.84,2.14,4.77.53,1.92.8,4.19.8,6.8v79.41c-.93,1.84-2.25,3.51-3.96,5Z"/><path class="cls-12" d="m296.54,247.53c-3.45,0-6.57-1.17-9.36-3.5-2.79-2.33-5.18-5.74-7.16-10.22-1.99-4.48-3.52-9.99-4.6-16.53s-1.62-13.98-1.62-22.33.62-16.1,1.86-22.49c1.24-6.38,2.88-11.7,4.94-15.95,2.05-4.25,4.41-7.43,7.08-9.53,2.67-2.1,5.43-3.15,8.29-3.15s5.53.85,7.93,2.54c2.4,1.69,4.46,4,6.18,6.92,1.71,2.92,3.05,6.35,4,10.3.95,3.95,1.43,8.2,1.43,12.76,0,3.64-.26,6.74-.78,9.3-.52,2.56-1.24,4.65-2.16,6.27-.92,1.61-2.03,2.81-3.32,3.57-1.29.77-2.7,1.15-4.22,1.15-.95,0-1.9-.29-2.84-.88-.94-.59-1.81-1.32-2.6-2.19-.79-.87-1.47-1.81-2.03-2.81-.56-1-.91-1.88-1.07-2.65,0-1.33,0-2.87.02-4.61.01-1.74.04-3.51.08-5.3-.07-.05-.15-.08-.25-.08h-.22c-.34,0-.61.22-.8.65-.19.44-.35,1.2-.46,2.31-.11,1.1-.19,2.6-.22,4.5-.03,1.9-.05,4.31-.05,7.23,0,3.95.04,7.32.12,10.11.08,2.79.19,5.07.32,6.84s.31,3.06.51,3.88c.2.82.43,1.23.68,1.23.23,0,.43-.13.61-.38v-7c.79-1.23,1.77-2.33,2.93-3.31,1.16-.97,2.39-1.81,3.69-2.5,1.3-.69,2.65-1.23,4.03-1.61,1.38-.38,2.7-.58,3.95-.58.61,1.44,1.17,3.26,1.68,5.46.51,2.2.95,4.57,1.33,7.11.37,2.54.67,5.1.9,7.69.23,2.59.35,4.96.37,7.11-.43,1.9-1.17,4.04-2.21,6.42-1.04,2.38-2.37,4.64-3.98,6.77-1.61,2.13-3.51,3.91-5.68,5.34-2.18,1.43-4.61,2.15-7.28,2.15Z"/><path class="cls-12" d="m17,127.46c-1.71,1.49-3.77,2.23-6.18,2.23-1.27,0-2.5-.31-3.68-.92-1.18-.62-2.22-1.55-3.11-2.81-.9-1.25-1.61-2.84-2.14-4.77-.53-1.92-.8-4.19-.8-6.8V34.98c.93-1.84,2.25-3.51,3.97-5,1.71-1.49,3.77-2.23,6.18-2.23,1.27,0,2.5.31,3.68.92,1.18.61,2.22,1.55,3.11,2.81.9,1.26,1.61,2.84,2.14,4.77.53,1.92.8,4.19.8,6.8v79.41c-.93,1.84-2.25,3.51-3.97,5Z"/><path class="cls-12" d="m50.21,108.78c.79-.41,1.66-1.25,2.59-2.54.93-1.28,1.83-3.36,2.69-6.23.39-1.33.58-2.48.58-3.46,0-1.33-.3-2-.89-2-.05,0-.08.01-.12.04-.03.03-.07.04-.12.04-1.61,7.53-4.19,11.3-7.73,11.3-.88,0-1.71-.2-2.47-.61-.76-.41-1.47-1.08-2.13-2-.66-.92-1.28-2.15-1.87-3.69-.59-1.54-1.16-3.43-1.7-5.69h-.2c-.25,0-.47.13-.65.38-.18.26-.27.72-.27,1.38,0,.87.14,1.79.41,2.77.5,1.84,1.04,3.43,1.62,4.77.58,1.33,1.17,2.45,1.77,3.34.6.9,1.2,1.58,1.79,2.04.59.46,1.12.74,1.6.85l-.27,14.53c-.59.87-1.21,1.67-1.85,2.38-.65.72-1.38,1.32-2.2,1.81s-1.74.86-2.77,1.11c-1.03.26-2.22.38-3.56.38s-2.6-.28-3.98-.85c-1.38-.56-2.65-1.5-3.81-2.81-1.16-1.31-2.12-2.98-2.88-5.04-.76-2.05-1.14-4.59-1.14-7.61,0-1.59.03-3.75.1-6.5.07-2.74.16-5.85.29-9.34.12-3.48.27-7.25.43-11.3.16-4.05.33-8.14.51-12.26.18-4.12.36-8.21.54-12.26.18-4.05.36-7.81.54-11.3.18-3.48.35-6.58.49-9.3.15-2.72.28-4.84.39-6.38.66-1.33,1.41-2.46,2.25-3.38.84-.92,1.72-1.65,2.64-2.19s1.84-.92,2.77-1.15c.93-.23,1.83-.35,2.69-.35,1.54,0,3.06.38,4.54,1.15,1.49.77,2.72,1.77,3.69,3l1.87,14.15-1.19,11.3c-.05.41-.08.79-.1,1.15-.02.36-.03.72-.03,1.08,0,1.74.45,2.67,1.36,2.77l3.23-30.36c.39-.46.88-.95,1.48-1.46.6-.51,1.27-.97,2.01-1.38.74-.41,1.54-.74,2.4-1,.86-.26,1.75-.38,2.66-.38,1.61,0,3.02.3,4.24.88,1.21.59,2.23,1.54,3.06,2.84.83,1.31,1.48,3.01,1.96,5.11.48,2.1.79,4.69.95,7.76.16,3.23.36,7.12.6,11.68.24,4.56.48,9.39.73,14.49.25,5.1.5,10.26.75,15.49.25,5.23.47,10.14.66,14.72.19,4.59.35,8.65.48,12.18.12,3.54.19,6.15.19,7.84-2.52,6-6.15,8.99-10.89,8.99-1.5,0-2.87-.28-4.12-.85-1.25-.56-2.32-1.42-3.22-2.58-.9-1.15-1.61-2.58-2.14-4.27-.53-1.69-.85-3.69-.94-6l-.31-7.23Z"/><path class="cls-12" d="m73.49,40.74c0-1.69.5-3.34,1.51-4.96,1.01-1.61,2.37-3.07,4.07-4.38,1.7-1.31,3.66-2.36,5.87-3.15,2.21-.79,4.53-1.19,6.96-1.19,3.36,0,6.38.99,9.07,2.96,2.69,1.97,4.98,4.75,6.86,8.34,1.88,3.59,3.34,7.92,4.36,12.99,1.02,5.07,1.53,10.69,1.53,16.84,0,6.56-.47,12.33-1.4,17.3-.93,4.97-2.25,9.12-3.97,12.45-1.71,3.33-3.78,5.83-6.19,7.5-2.42,1.67-5.1,2.5-8.05,2.5-.75,0-1.52-.12-2.31-.35-.79-.23-1.54-.51-2.25-.85-.7-.33-1.33-.67-1.87-1-.54-.33-.94-.63-1.19-.88-.07.15-.13.36-.19.61-.06.26-.08.62-.08,1.08,0,.56.11,1.1.32,1.61.22.51.6.97,1.14,1.38.54.41,1.28.78,2.2,1.11.92.33,2.08.6,3.49.81v11.76c-.54,1.03-1.2,1.94-1.96,2.73-.76.8-1.57,1.47-2.43,2.04-.86.56-1.76.99-2.71,1.27-.94.28-1.88.42-2.81.42-1.29,0-2.54-.3-3.74-.88-1.2-.59-2.26-1.52-3.18-2.81-.92-1.28-1.66-2.93-2.21-4.96-.56-2.02-.83-4.45-.83-7.26V40.74Zm19.03,35.98c.07.1.18.17.32.19.15.03.24.04.29.04.54,0,.93-.38,1.16-1.15.23-.77.34-2.02.34-3.77v-5.84c0-1.79-.1-3.1-.29-3.92-.19-.82-.55-1.23-1.07-1.23-.11,0-.25.03-.41.08-.16.05-.28.13-.37.23.02.41.03.85.03,1.31v14.07Z"/><path class="cls-12" d="m150.11,29.13c.29,1.08.57,2.27.82,3.57.25,1.31.45,2.67.61,4.07.16,1.41.28,2.82.37,4.23.09,1.41.14,2.73.14,3.96,0,5.28-.45,9.2-1.36,11.76-.91,2.56-2.16,3.84-3.74,3.84h-13.72c-.84,0-1.26.74-1.26,2.23v.62c0,.31.02.51.07.61h16.27c.2.77.4,1.68.58,2.73.18,1.05.33,2.15.46,3.31.12,1.15.23,2.33.31,3.54.08,1.2.12,2.34.12,3.42,0,3.07-.14,5.83-.41,8.26-.27,2.44-.64,4.45-1.09,6.03h-7.39c-1.93,0-3.52.12-4.78.35-1.26.23-2.25.53-2.98.88-.73.36-1.24.76-1.53,1.19-.3.44-.44.88-.44,1.35,0,.41.03.79.09,1.15.06.36.19.67.39.92.57-.41,1.15-.77,1.74-1.08.59-.31,1.25-.55,1.97-.73.73-.18,1.54-.32,2.43-.42.9-.1,1.93-.15,3.11-.15h9.56c.25.82.5,1.73.75,2.73.25,1,.47,2.15.66,3.46.19,1.31.35,2.81.48,4.5.12,1.69.19,3.64.19,5.84,0,1.38-.05,2.86-.14,4.42-.09,1.56-.23,3.11-.41,4.65-.18,1.54-.42,3-.71,4.38-.3,1.38-.65,2.59-1.06,3.61h-25.49c-1.34,0-2.59-.37-3.74-1.11-1.16-.74-2.17-1.9-3.03-3.46-.86-1.56-1.54-3.54-2.04-5.92-.5-2.38-.75-5.24-.75-8.57V36.21c0-2.46,1.26-4.25,3.78-5.38,2.52-1.13,6.37-1.69,11.54-1.69h19.64Z"/><path class="cls-12" d="m196.67,104.78c-.39,7.84-1.48,13.95-3.28,18.33-1.8,4.38-4.35,6.57-7.64,6.57-1.07,0-2.14-.28-3.22-.85-1.08-.56-2.12-1.58-3.13-3.04-1.01-1.46-1.96-3.46-2.84-6-.88-2.54-1.65-5.78-2.28-9.72l-1.23-7.53c-.89-.05-1.6-.17-2.14-.35-.54-.18-1.03-.35-1.46-.5-.07.15-.13.36-.19.62-.06.26-.08.61-.08,1.08,0,.61.18,1.14.54,1.58.36.44,1.1.73,2.21.88l1.94,11.07v6.53c-1.27,2.05-2.78,3.6-4.53,4.65-1.75,1.05-3.59,1.58-5.51,1.58-1.41,0-2.69-.32-3.86-.96-1.17-.64-2.18-1.63-3.05-2.96-.86-1.33-1.53-2.98-2.01-4.96-.48-1.97-.71-4.32-.71-7.03V40.74c0-1.18.26-2.34.78-3.5.52-1.15,1.24-2.24,2.14-3.27.91-1.02,1.97-1.96,3.2-2.81,1.23-.85,2.54-1.58,3.93-2.19,1.4-.61,2.85-1.09,4.36-1.42,1.51-.33,3-.5,4.48-.5,3.29,0,6.29.8,9,2.38,2.71,1.59,5.03,3.96,6.96,7.11s3.42,7.05,4.48,11.68c1.06,4.64,1.58,10.03,1.58,16.18,0,3.59-.24,6.89-.73,9.92-.49,3.02-1.14,5.71-1.96,8.07-.82,2.36-1.78,4.37-2.88,6.03-1.1,1.67-2.26,2.93-3.49,3.81,0,.92.11,1.56.34,1.92.23.36.5.54.82.54s.79-.26,1.43-.77c.64-.51,1.35-1.43,2.14-2.77l5.89,13.61Zm-23.45-31.13c.07.1.18.17.32.19.15.03.24.04.29.04.54,0,.93-.38,1.16-1.15.23-.77.34-2.02.34-3.77v-2.77c0-1.79-.1-3.1-.29-3.92-.19-.82-.55-1.23-1.07-1.23-.11,0-.25.03-.41.08-.16.05-.28.13-.37.23.02.41.03.85.03,1.31v10.99Z"/><path class="cls-12" d="m213.84,127.46c-1.71,1.49-3.77,2.23-6.18,2.23-1.27,0-2.5-.31-3.68-.92-1.18-.62-2.22-1.55-3.11-2.81-.9-1.25-1.61-2.84-2.14-4.77-.53-1.92-.8-4.19-.8-6.8V34.98c.93-1.84,2.25-3.51,3.97-5,1.71-1.49,3.77-2.23,6.18-2.23,1.27,0,2.5.31,3.68.92,1.18.61,2.22,1.55,3.11,2.81.9,1.26,1.61,2.84,2.14,4.77s.8,4.19.8,6.8v79.41c-.93,1.84-2.25,3.51-3.97,5Z"/><path class="cls-12" d="m226.79,36.05c.88-1.28,1.88-2.45,3-3.5,1.11-1.05,2.29-1.93,3.52-2.65,1.24-.72,2.52-1.27,3.85-1.65,1.33-.38,2.66-.58,4-.58,1.77,0,3.52.36,5.26,1.08,1.74.72,3.32,1.84,4.75,3.38s2.66,3.52,3.68,5.96c1.02,2.43,1.71,5.34,2.08,8.73l7.76,72.49c-1.04,3.02-2.51,5.51-4.39,7.46-1.88,1.95-4.27,2.92-7.15,2.92-1.27,0-2.46-.26-3.57-.77-1.11-.51-2.09-1.27-2.94-2.27-.85-1-1.55-2.25-2.11-3.77-.56-1.51-.91-3.29-1.07-5.34l-.75-9.38c.7-.05,1.4-.24,2.09-.58.69-.33,1.32-.74,1.87-1.23.56-.49,1.01-1.04,1.36-1.65.35-.61.53-1.23.53-1.84,0-.82-.15-1.49-.44-2-.41.67-.88,1.27-1.43,1.81s-1.12.99-1.72,1.35c-.6.36-1.2.63-1.8.81-.6.18-1.16.27-1.68.27-.98,0-1.84-.14-2.6-.42-.76-.28-1.42-.63-1.99-1.04-.57-.41-1.05-.86-1.46-1.35-.41-.49-.75-.96-1.02-1.42-.09.26-.17.55-.24.88-.07.33-.1.71-.1,1.11,0,.77.17,1.47.53,2.11.35.64.82,1.2,1.41,1.69.59.49,1.26.88,2.03,1.19.76.31,1.56.51,2.4.61.14,3.59.29,6.45.46,8.57.17,2.13.33,3.47.49,4.04-.2.87-.61,1.81-1.21,2.81-.6,1-1.35,1.94-2.25,2.81-.9.87-1.92,1.59-3.06,2.15-1.15.56-2.37.85-3.66.85-1.61,0-3.13-.41-4.56-1.23s-2.68-1.96-3.74-3.42-1.92-3.23-2.55-5.3-.95-4.39-.95-6.96c0-.56.01-1.14.04-1.73.02-.59.07-1.19.13-1.81l7.25-73.18Zm16,39.59c-.25-3.07-.45-5.53-.6-7.38-.15-1.84-.29-3.24-.44-4.19-.15-.95-.31-1.56-.48-1.84-.17-.28-.38-.42-.63-.42-.16,0-.31.05-.44.15-.14.1-.26.21-.38.31l1.29,15.53c.09.21.22.36.39.46.17.1.32.15.46.15.2,0,.4-.06.58-.19.18-.13.32-.24.41-.35l-.17-2.23Z"/><path class="cls-12" d="m273.63,128.38c-2.45,0-4.38-1.47-5.79-4.42-1.41-2.95-2.11-7.55-2.11-13.8V34.98c1.2-2.31,2.68-4.09,4.42-5.34,1.75-1.26,3.54-1.88,5.38-1.88,1.27,0,2.51.38,3.73,1.15,1.21.77,2.29,1.94,3.23,3.5.94,1.56,1.7,3.55,2.26,5.96.57,2.41.85,5.23.85,8.46v42.05c-.57.1-1.17.36-1.82.77-.65.41-1.25.92-1.8,1.54-.56.62-1.02,1.29-1.4,2.04-.37.74-.56,1.5-.56,2.27,0,.56.06,1.01.19,1.35.12.33.28.63.46.88,1.27-2.41,2.72-4.07,4.36-5,1.63-.92,3.52-1.38,5.65-1.38h8.07c.34,1.33.65,2.73.92,4.19.27,1.46.5,2.95.7,4.46.19,1.51.35,3.01.46,4.5.11,1.49.17,2.87.17,4.15,0,1.85-.06,3.73-.19,5.65-.12,1.92-.3,3.75-.53,5.5-.23,1.74-.5,3.36-.82,4.84-.32,1.49-.68,2.74-1.09,3.77h-24.75Z"/></svg>