<?xml version="1.0" encoding="UTF-8"?><svg xmlns="http://www.w3.org/2000/svg" width="310" height="130" xmlns:xlink="http://www.w3.org/1999/xlink" viewBox="0 0 310 130"><defs><style>.cls-1{fill:#f9f491;filter:url(#outer-glow-1);}.cls-1,.cls-2,.cls-3,.cls-4,.cls-5,.cls-6,.cls-7,.cls-8,.cls-9,.cls-10,.cls-11,.cls-12,.cls-13,.cls-14,.cls-15,.cls-16,.cls-17,.cls-18,.cls-19,.cls-20,.cls-21,.cls-22,.cls-23{stroke-width:0px;}.cls-2{fill:url(#linear-gradient);mix-blend-mode:screen;}.cls-24{isolation:isolate;}.cls-3{fill:#f9ebe9;}.cls-4{fill:#f9dce8;}.cls-5{fill:#f9e1e8;}.cls-6{fill:#f9dfe8;}.cls-7{fill:#f9e2e8;}.cls-8{fill:#f9ece9;}.cls-9{fill:#f9e0e8;}.cls-10{fill:#f9e6e9;}.cls-11{fill:#f9e9e9;}.cls-12{fill:#f9eae9;}.cls-13{fill:#f9e8e9;}.cls-14{fill:#f9e7e9;}.cls-15{fill:#f9e5e9;}.cls-16{fill:#f9dde8;}.cls-17{fill:#f9dbe8;}.cls-18{fill:#f9dee8;}.cls-19{fill:#f9dae8;}.cls-20{fill:#f9d9e8;}.cls-21{fill:#f9e4e9;}.cls-22{fill:#f9e3e9;}.cls-23{fill:#ff87ad;}</style><linearGradient id="linear-gradient" x1="153.07" y1="-28.29" x2="155.76" y2="61.69" gradientUnits="userSpaceOnUse"><stop offset=".31" stop-color="#fff"/><stop offset="1" stop-color="#000"/></linearGradient><filter id="outer-glow-1" filterUnits="userSpaceOnUse"><feOffset dx="0" dy="0"/><feGaussianBlur result="blur" stdDeviation="79.37"/><feFlood flood-color="#f9f2f2" flood-opacity=".85"/><feComposite in2="blur" operator="in"/><feComposite in="SourceGraphic"/></filter></defs><g class="cls-24"><g id="Layer_1"><rect class="cls-20" x="4.08" y="1.21" width="301.84" height="123.03" rx="61.52" ry="61.52"/><rect class="cls-19" x="7.46" y="5.34" width="295.07" height="118.57" rx="59.29" ry="59.29"/><rect class="cls-17" x="10.84" y="9.46" width="288.31" height="114.11" rx="57.06" ry="57.06"/><rect class="cls-4" x="14.23" y="13.59" width="281.55" height="109.65" rx="54.83" ry="54.83"/><rect class="cls-16" x="17.61" y="17.72" width="274.79" height="105.19" rx="52.6" ry="52.6"/><rect class="cls-18" x="20.99" y="21.85" width="268.02" height="100.73" rx="50.37" ry="50.37"/><rect class="cls-6" x="24.37" y="25.98" width="261.26" height="96.27" rx="48.14" ry="48.14"/><rect class="cls-9" x="27.75" y="30.1" width="254.5" height="91.81" rx="45.91" ry="45.91"/><rect class="cls-5" x="31.13" y="34.23" width="247.73" height="87.35" rx="43.68" ry="43.68"/><rect class="cls-7" x="34.51" y="38.36" width="240.97" height="82.89" rx="41.45" ry="41.45"/><rect class="cls-22" x="37.9" y="42.49" width="234.21" height="78.43" rx="39.22" ry="39.22"/><rect class="cls-22" x="41.28" y="46.62" width="227.45" height="73.97" rx="36.99" ry="36.99"/><rect class="cls-21" x="44.66" y="50.74" width="220.68" height="69.51" rx="34.76" ry="34.76"/><rect class="cls-15" x="48.04" y="54.87" width="213.92" height="65.05" rx="32.53" ry="32.53"/><rect class="cls-10" x="51.42" y="59" width="207.16" height="60.59" rx="30.3" ry="30.3"/><rect class="cls-14" x="54.8" y="63.13" width="200.4" height="56.13" rx="28.07" ry="28.07"/><rect class="cls-13" x="58.18" y="67.25" width="193.63" height="51.67" rx="25.84" ry="25.84"/><rect class="cls-11" x="61.57" y="71.38" width="186.87" height="47.21" rx="23.61" ry="23.61"/><rect class="cls-12" x="64.95" y="75.51" width="180.11" height="42.75" rx="21.38" ry="21.38"/><rect class="cls-3" x="68.33" y="79.64" width="173.34" height="38.29" rx="19.15" ry="19.15"/><rect class="cls-8" x="71.71" y="83.77" width="166.58" height="33.83" rx="16.92" ry="16.92"/><rect class="cls-2" x="27.29" y="5.04" width="255.41" height="62.43" rx="26.57" ry="26.57"/><path class="cls-23" d="m70.65,45.87c0-.77.52-1.53,1.56-2.27,1.04-.74,2.44-1.41,4.2-2s3.78-1.08,6.06-1.44,4.68-.54,7.19-.54c3.47,0,6.59.45,9.37,1.35s5.14,2.17,7.08,3.81c1.95,1.64,3.45,3.62,4.5,5.94s1.58,4.89,1.58,7.7c0,3-.48,5.64-1.44,7.91-.96,2.27-2.33,4.17-4.1,5.7-1.77,1.52-3.9,2.67-6.4,3.43s-5.27,1.14-8.31,1.14c-.77,0-1.57-.05-2.39-.16-.82-.11-1.59-.23-2.32-.39-.73-.15-1.37-.3-1.93-.46s-.97-.29-1.23-.4c-.07.07-.14.16-.19.28-.06.12-.09.28-.09.49,0,.26.11.5.33.74.22.23.62.45,1.18.63s1.32.36,2.27.51,2.15.28,3.6.37v5.38c-.56.47-1.24.88-2.02,1.25-.79.36-1.62.67-2.51.93-.89.26-1.82.45-2.79.58-.97.13-1.94.19-2.9.19-1.34,0-2.62-.13-3.87-.4-1.24-.27-2.34-.7-3.29-1.28s-1.71-1.34-2.29-2.27c-.58-.93-.86-2.03-.86-3.32v-33.4Zm19.65,16.45c.07.05.18.08.33.09.15.01.25.02.3.02.56,0,.96-.18,1.2-.53.23-.35.35-.93.35-1.72v-2.67c0-.82-.1-1.42-.3-1.79-.2-.38-.57-.56-1.11-.56-.12,0-.26.01-.42.04-.16.02-.29.06-.39.11.02.19.04.39.04.6v6.43Z"/><path class="cls-23" d="m121.84,85.95c-2.53,0-4.52-.67-5.98-2.02-1.45-1.35-2.18-3.45-2.18-6.31v-34.38c1.24-1.05,2.76-1.87,4.57-2.44,1.8-.57,3.66-.86,5.55-.86,1.31,0,2.6.18,3.85.53,1.25.35,2.37.88,3.34,1.6.97.71,1.75,1.62,2.34,2.72.58,1.1.88,2.39.88,3.87v19.23c-.59.05-1.21.16-1.88.35s-1.29.42-1.86.7c-.58.28-1.05.59-1.44.93s-.58.69-.58,1.04c0,.26.06.46.19.62.13.15.29.29.47.4,1.31-1.1,2.81-1.86,4.5-2.29s3.63-.63,5.84-.63h8.33c.35.61.67,1.25.95,1.92s.52,1.35.72,2.04c.2.69.36,1.38.47,2.06.12.68.18,1.31.18,1.9,0,.84-.07,1.71-.19,2.58-.13.88-.31,1.72-.54,2.51-.23.8-.52,1.54-.84,2.21-.33.68-.7,1.25-1.12,1.72h-25.56Z"/><path class="cls-23" d="m158.96,43.72c.91-.59,1.95-1.12,3.09-1.6,1.15-.48,2.36-.88,3.64-1.21,1.28-.33,2.6-.58,3.97-.76s2.75-.26,4.13-.26c1.83,0,3.64.16,5.43.49s3.43.84,4.9,1.55,2.74,1.61,3.8,2.72,1.77,2.44,2.14,3.99l8.02,33.15c-1.08,1.38-2.59,2.52-4.54,3.41-1.95.89-4.41,1.34-7.38,1.34-1.31,0-2.54-.12-3.69-.35-1.15-.23-2.16-.58-3.04-1.04s-1.61-1.03-2.18-1.72c-.58-.69-.94-1.51-1.11-2.44l-.77-4.29c.73-.02,1.45-.11,2.16-.26.71-.15,1.36-.34,1.93-.56.57-.22,1.04-.47,1.41-.76.36-.28.54-.56.54-.84,0-.38-.15-.68-.46-.91-.42.3-.91.58-1.48.83s-1.16.45-1.78.62c-.62.16-1.24.29-1.86.37-.62.08-1.2.12-1.74.12-1.01,0-1.9-.06-2.69-.19-.79-.13-1.47-.29-2.06-.47-.59-.19-1.09-.39-1.51-.62s-.77-.44-1.05-.65c-.09.12-.18.25-.25.4s-.11.32-.11.51c0,.35.18.67.54.97.36.29.85.55,1.46.77.61.22,1.31.4,2.09.54.79.14,1.61.23,2.48.28.14,1.64.3,2.95.47,3.92s.35,1.59.51,1.85c-.21.4-.63.83-1.25,1.28-.62.46-1.39.88-2.32,1.28-.93.4-1.98.73-3.16.98-1.18.26-2.44.39-3.78.39-1.67,0-3.23-.19-4.71-.56s-2.77-.9-3.87-1.56c-1.1-.67-1.98-1.48-2.64-2.43-.66-.95-.98-2.01-.98-3.18,0-.26.01-.52.04-.79.02-.27.07-.54.14-.83l7.49-33.47Zm16.52,18.11c-.26-1.41-.46-2.53-.62-3.38-.15-.84-.3-1.48-.46-1.92-.15-.43-.32-.71-.49-.84s-.39-.19-.65-.19c-.16,0-.32.02-.46.07s-.27.09-.39.14l1.34,7.1c.09.09.23.16.4.21s.33.07.47.07c.21,0,.41-.03.6-.09.19-.06.33-.11.42-.16l-.18-1.02Z"/><path class="cls-23" d="m209.13,74.13c-2.65-1.76-4.96-3.71-6.94-5.87-1.98-2.16-3.64-4.47-4.99-6.94-1.35-2.47-2.4-5.09-3.15-7.86-.75-2.77-1.21-5.64-1.37-8.61.58-.87,1.31-1.61,2.18-2.21.87-.61,1.8-1.11,2.81-1.51,1.01-.4,2.05-.69,3.13-.88,1.08-.19,2.11-.28,3.09-.28,1.62,0,3.03.15,4.24.46,1.21.3,2.31.73,3.32,1.27.16.42.4,1.07.7,1.95.3.88.62,1.82.93,2.81s.62,1.98.91,2.95c.29.97.52,1.78.69,2.41l-1.55,6.82c-.05.26-.11.55-.19.88-.08.33-.12.62-.12.88,0,.35.09.64.28.86.19.22.51.33.98.33.14-.45.33-1.17.58-2.16s.51-2.13.81-3.41c.29-1.28.6-2.64.91-4.08s.62-2.83.91-4.17c.29-1.34.57-2.56.83-3.67.26-1.11.47-2,.63-2.65.91-.45,2-.81,3.27-1.11s2.64-.44,4.11-.44c1.64,0,3.14.21,4.5.62,1.36.41,2.52,1.01,3.48,1.81.96.8,1.71,1.79,2.23,2.97s.79,2.55.79,4.1c0,2.46-.35,4.79-1.05,7s-1.62,4.25-2.74,6.15-2.39,3.64-3.78,5.24c-1.39,1.59-2.77,3-4.13,4.22v11.6c-1.03.63-1.99,1.14-2.88,1.53-.89.39-1.75.69-2.58.9-.83.21-1.63.35-2.39.42-.76.07-1.52.11-2.27.11-1.55,0-2.96-.14-4.24-.42-1.28-.28-2.37-.72-3.29-1.32s-1.62-1.35-2.13-2.27c-.5-.91-.76-2-.76-3.27v-6.19c.14.14.35.33.63.58s.57.49.88.72c.3.23.62.43.93.6s.58.25.79.25c.28,0,.51-.09.7-.26.19-.18.28-.45.28-.83Z"/><polygon class="cls-1" points="-159.1 224.42 -214.13 184.78 -267.61 224.46 -248.13 160.29 -303.16 120.66 -236.09 120.63 -216.61 56.45 -194.64 120.61 -127.58 120.58 -181.07 160.26 -159.1 224.42"/></g></g></svg>