<?xml version="1.0" encoding="UTF-8"?><svg xmlns="http://www.w3.org/2000/svg" width="310" height="130" xmlns:xlink="http://www.w3.org/1999/xlink" viewBox="0 0 310 130"><defs><style>.cls-1{fill:#f9f491;filter:url(#outer-glow-1);}.cls-1,.cls-2,.cls-3,.cls-4,.cls-5,.cls-6,.cls-7,.cls-8,.cls-9,.cls-10,.cls-11,.cls-12,.cls-13,.cls-14,.cls-15,.cls-16,.cls-17,.cls-18,.cls-19,.cls-20,.cls-21,.cls-22,.cls-23{stroke-width:0px;}.cls-2{fill:url(#linear-gradient);mix-blend-mode:screen;}.cls-24{isolation:isolate;}.cls-3{fill:#f9ebe9;}.cls-4{fill:#f9dce8;}.cls-5{fill:#f9e1e8;}.cls-6{fill:#f9dfe8;}.cls-7{fill:#f9e2e8;}.cls-8{fill:#f9ece9;}.cls-9{fill:#f9e0e8;}.cls-10{fill:#f9e6e9;}.cls-11{fill:#f9e9e9;}.cls-12{fill:#f9eae9;}.cls-13{fill:#f9e8e9;}.cls-14{fill:#f9e7e9;}.cls-15{fill:#f9e5e9;}.cls-16{fill:#f9dde8;}.cls-17{fill:#f9dbe8;}.cls-18{fill:#f9dee8;}.cls-19{fill:#f9dae8;}.cls-20{fill:#f9d9e8;}.cls-21{fill:#f9e4e9;}.cls-22{fill:#f9e3e9;}.cls-23{fill:#ff87ad;}</style><filter id="outer-glow-1" filterUnits="userSpaceOnUse"><feOffset dx="0" dy="0"/><feGaussianBlur result="blur" stdDeviation="79.37"/><feFlood flood-color="#f9f2f2" flood-opacity=".85"/><feComposite in2="blur" operator="in"/><feComposite in="SourceGraphic"/></filter><linearGradient id="linear-gradient" x1="153.07" y1="-26.02" x2="155.76" y2="63.96" gradientUnits="userSpaceOnUse"><stop offset=".31" stop-color="#fff"/><stop offset="1" stop-color="#000"/></linearGradient></defs><g class="cls-24"><g id="Layer_1"><polygon class="cls-1" points="-159.5 8.93 -214.52 -30.71 -268.01 8.97 -248.53 -55.2 -303.56 -94.83 -236.49 -94.86 -217.01 -159.04 -195.04 -94.88 -127.98 -94.91 -181.47 -55.23 -159.5 8.93"/><rect class="cls-20" x="4.08" y="3.48" width="301.84" height="123.03" rx="61.52" ry="61.52"/><rect class="cls-19" x="7.46" y="7.61" width="295.07" height="118.57" rx="59.29" ry="59.29"/><rect class="cls-17" x="10.84" y="11.74" width="288.31" height="114.11" rx="57.06" ry="57.06"/><rect class="cls-4" x="14.23" y="15.87" width="281.55" height="109.65" rx="54.83" ry="54.83"/><rect class="cls-16" x="17.61" y="19.99" width="274.79" height="105.19" rx="52.6" ry="52.6"/><rect class="cls-18" x="20.99" y="24.12" width="268.02" height="100.73" rx="50.37" ry="50.37"/><rect class="cls-6" x="24.37" y="28.25" width="261.26" height="96.27" rx="48.14" ry="48.14"/><rect class="cls-9" x="27.75" y="32.38" width="254.5" height="91.81" rx="45.91" ry="45.91"/><rect class="cls-5" x="31.13" y="36.51" width="247.73" height="87.35" rx="43.68" ry="43.68"/><rect class="cls-7" x="34.51" y="40.63" width="240.97" height="82.89" rx="41.45" ry="41.45"/><rect class="cls-22" x="37.9" y="44.76" width="234.21" height="78.43" rx="39.22" ry="39.22"/><rect class="cls-22" x="41.28" y="48.89" width="227.45" height="73.97" rx="36.99" ry="36.99"/><rect class="cls-21" x="44.66" y="53.02" width="220.68" height="69.51" rx="34.76" ry="34.76"/><rect class="cls-15" x="48.04" y="57.14" width="213.92" height="65.05" rx="32.53" ry="32.53"/><rect class="cls-10" x="51.42" y="61.27" width="207.16" height="60.59" rx="30.3" ry="30.3"/><rect class="cls-14" x="54.8" y="65.4" width="200.4" height="56.13" rx="28.07" ry="28.07"/><rect class="cls-13" x="58.18" y="69.53" width="193.63" height="51.67" rx="25.84" ry="25.84"/><rect class="cls-11" x="61.57" y="73.66" width="186.87" height="47.21" rx="23.61" ry="23.61"/><rect class="cls-12" x="64.95" y="77.78" width="180.11" height="42.75" rx="21.38" ry="21.38"/><rect class="cls-3" x="68.33" y="81.91" width="173.34" height="38.29" rx="19.15" ry="19.15"/><rect class="cls-8" x="71.71" y="86.04" width="166.58" height="33.83" rx="16.92" ry="16.92"/><rect class="cls-2" x="27.29" y="7.31" width="255.41" height="62.43" rx="26.57" ry="26.57"/><path class="cls-23" d="m74.53,77.43c-.4,3.59-1.53,6.38-3.39,8.38s-4.49,3.01-7.89,3.01c-1.1,0-2.21-.13-3.32-.39s-2.19-.72-3.23-1.39-2.02-1.58-2.94-2.74-1.7-2.64-2.36-4.45l-1.27-3.45c-.91-.02-1.65-.08-2.21-.16s-1.07-.16-1.51-.23c-.07.07-.13.16-.19.28s-.09.28-.09.49c0,.28.19.52.56.72s1.14.33,2.29.4l2,5.06v2.99c-1.31.94-2.87,1.65-4.68,2.13s-3.7.72-5.7.72c-1.45,0-2.78-.15-3.99-.44s-2.26-.74-3.15-1.35-1.58-1.37-2.07-2.27-.74-1.97-.74-3.22v-33.4c0-.54.27-1.07.81-1.6s1.28-1.03,2.21-1.49,2.04-.9,3.3-1.28,2.62-.72,4.06-1,2.94-.5,4.5-.65,3.1-.23,4.62-.23c3.4,0,6.5.36,9.3,1.09s5.2,1.81,7.19,3.25,3.53,3.22,4.62,5.34,1.63,4.59,1.63,7.4c0,1.64-.25,3.15-.76,4.54s-1.18,2.61-2.02,3.69-1.83,2-2.97,2.76-2.34,1.34-3.6,1.74c0,.42.12.71.35.88s.52.25.84.25.82-.12,1.48-.35,1.39-.66,2.21-1.27l6.08,6.22Zm-24.22-14.24c.07.05.18.08.33.09s.25.02.3.02c.56,0,.96-.18,1.2-.53s.35-.93.35-1.72v-1.27c0-.82-.1-1.42-.3-1.79s-.57-.56-1.11-.56c-.12,0-.26.01-.42.04s-.29.06-.39.11c.02.19.04.39.04.6v5.03Z"/><path class="cls-23" d="m111.93,42.83c.3.49.59,1.04.84,1.63s.47,1.22.63,1.86.29,1.29.39,1.93.14,1.25.14,1.81c0,2.41-.47,4.21-1.41,5.38s-2.23,1.76-3.87,1.76h-14.17c-.87,0-1.3.34-1.3,1.02v.28c0,.14.02.23.07.28h16.8c.21.35.41.77.6,1.25s.35.98.47,1.51.23,1.07.32,1.62.12,1.07.12,1.56c0,1.41-.14,2.67-.42,3.78s-.66,2.03-1.12,2.76h-7.63c-1.99,0-3.64.05-4.94.16s-2.33.24-3.08.4-1.28.35-1.58.54-.46.4-.46.62c0,.19.03.36.09.53s.19.3.4.42c.59-.19,1.18-.35,1.79-.49s1.29-.25,2.04-.33,1.59-.15,2.51-.19,2-.07,3.22-.07h9.88c.26.38.52.79.77,1.25s.49.98.69,1.58.36,1.28.49,2.06.19,1.66.19,2.67c0,.63-.05,1.31-.14,2.02s-.23,1.42-.42,2.13-.43,1.37-.74,2-.67,1.18-1.09,1.65h-26.33c-1.38,0-2.67-.17-3.87-.51s-2.24-.87-3.13-1.58-1.59-1.62-2.11-2.71-.77-2.4-.77-3.92v-33.43c0-1.12,1.3-1.95,3.9-2.46s6.57-.77,11.92-.77h20.29Z"/><path class="cls-23" d="m116.15,48.14c0-.77.52-1.53,1.56-2.27s2.44-1.41,4.2-2,3.78-1.08,6.06-1.44,4.68-.54,7.19-.54c3.47,0,6.59.45,9.37,1.35s5.14,2.17,7.08,3.81,3.45,3.62,4.5,5.94,1.58,4.89,1.58,7.7c0,3-.48,5.64-1.44,7.91s-2.33,4.17-4.1,5.7-3.9,2.67-6.4,3.43-5.27,1.14-8.31,1.14c-.77,0-1.57-.05-2.39-.16s-1.59-.23-2.32-.39-1.37-.3-1.93-.46-.97-.29-1.23-.4c-.07.07-.13.16-.19.28s-.09.28-.09.49c0,.26.11.5.33.74s.62.45,1.18.63,1.32.36,2.27.51,2.15.28,3.6.37v5.38c-.56.47-1.24.88-2.02,1.25s-1.62.67-2.51.93-1.82.45-2.79.58-1.94.19-2.9.19c-1.34,0-2.62-.13-3.87-.4s-2.34-.7-3.29-1.28-1.71-1.34-2.29-2.27-.86-2.03-.86-3.32v-33.4Zm19.65,16.45c.07.05.18.08.33.09s.25.02.3.02c.56,0,.96-.18,1.2-.53s.35-.93.35-1.72v-2.67c0-.82-.1-1.42-.3-1.79s-.57-.56-1.11-.56c-.12,0-.26.01-.42.04s-.29.06-.39.11c.02.19.04.39.04.6v6.43Z"/><path class="cls-23" d="m167.34,88.22c-2.53,0-4.52-.67-5.98-2.02s-2.18-3.45-2.18-6.31v-34.38c1.24-1.05,2.77-1.87,4.57-2.44s3.66-.86,5.55-.86c1.31,0,2.6.18,3.85.53s2.37.88,3.34,1.6,1.75,1.62,2.34,2.72.88,2.39.88,3.87v19.23c-.59.05-1.21.16-1.88.35s-1.29.42-1.86.7-1.05.59-1.44.93-.58.69-.58,1.04c0,.26.06.46.19.62s.29.29.47.4c1.31-1.1,2.81-1.86,4.5-2.29s3.63-.63,5.84-.63h8.33c.35.61.67,1.25.95,1.92s.52,1.35.72,2.04.36,1.38.47,2.06.18,1.31.18,1.9c0,.84-.06,1.71-.19,2.58s-.31,1.72-.54,2.51-.52,1.54-.84,2.21-.7,1.25-1.12,1.72h-25.56Z"/><path class="cls-23" d="m204.46,46c.91-.59,1.95-1.12,3.09-1.6s2.36-.88,3.64-1.21,2.6-.58,3.97-.76,2.75-.26,4.13-.26c1.83,0,3.64.16,5.43.49s3.43.84,4.9,1.55,2.74,1.61,3.8,2.72,1.77,2.44,2.14,3.99l8.02,33.15c-1.08,1.38-2.59,2.52-4.54,3.41s-4.41,1.34-7.38,1.34c-1.31,0-2.54-.12-3.69-.35s-2.16-.58-3.04-1.04-1.61-1.03-2.18-1.72-.94-1.51-1.11-2.44l-.77-4.29c.73-.02,1.45-.11,2.16-.26s1.36-.34,1.93-.56,1.04-.47,1.41-.76.54-.56.54-.84c0-.38-.15-.68-.46-.91-.42.3-.91.58-1.48.83s-1.15.45-1.78.62-1.24.29-1.86.37-1.2.12-1.74.12c-1.01,0-1.9-.06-2.69-.19s-1.47-.29-2.06-.47-1.09-.39-1.51-.62-.77-.44-1.05-.65c-.09.12-.18.25-.25.4s-.11.32-.11.51c0,.35.18.67.54.97s.85.55,1.46.77,1.31.4,2.09.54,1.61.23,2.48.28c.14,1.64.3,2.95.47,3.92s.35,1.59.51,1.85c-.21.4-.63.83-1.25,1.28s-1.39.88-2.32,1.28-1.98.73-3.16.98-2.44.39-3.78.39c-1.66,0-3.23-.19-4.71-.56s-2.77-.9-3.87-1.56-1.98-1.48-2.64-2.43-.98-2.01-.98-3.18c0-.26.01-.52.04-.79s.07-.54.14-.83l7.49-33.47Zm16.52,18.11c-.26-1.41-.46-2.53-.62-3.38s-.3-1.48-.46-1.92-.32-.71-.49-.84-.39-.19-.65-.19c-.16,0-.32.02-.46.07s-.27.09-.39.14l1.34,7.1c.09.09.23.16.4.21s.33.07.47.07c.21,0,.41-.03.6-.09s.33-.11.42-.16l-.18-1.02Z"/><path class="cls-23" d="m254.63,76.41c-2.65-1.76-4.96-3.71-6.94-5.87s-3.64-4.47-4.99-6.94-2.4-5.09-3.15-7.86-1.21-5.64-1.37-8.61c.59-.87,1.31-1.61,2.18-2.21s1.8-1.11,2.81-1.51,2.05-.69,3.13-.88,2.11-.28,3.09-.28c1.62,0,3.03.15,4.24.46s2.31.73,3.32,1.27c.16.42.4,1.07.7,1.95s.62,1.82.93,2.81.62,1.98.91,2.95.52,1.78.69,2.41l-1.55,6.82c-.05.26-.11.55-.19.88s-.12.62-.12.88c0,.35.09.64.28.86s.52.33.98.33c.14-.45.33-1.17.58-2.16s.52-2.13.81-3.41.6-2.64.91-4.08.62-2.83.91-4.17.57-2.56.83-3.67.47-2,.63-2.65c.91-.45,2-.81,3.27-1.11s2.64-.44,4.11-.44c1.64,0,3.14.21,4.5.62s2.52,1.01,3.48,1.81,1.71,1.79,2.23,2.97.79,2.55.79,4.1c0,2.46-.35,4.79-1.05,7s-1.62,4.25-2.74,6.15-2.38,3.64-3.78,5.24-2.77,3-4.13,4.22v11.6c-1.03.63-1.99,1.14-2.88,1.53s-1.75.69-2.58.9-1.63.35-2.39.42-1.52.11-2.27.11c-1.55,0-2.96-.14-4.24-.42s-2.37-.72-3.29-1.32-1.62-1.35-2.13-2.27-.76-2-.76-3.27v-6.19c.14.14.35.33.63.58s.57.49.88.72.62.43.93.6.58.25.79.25c.28,0,.52-.09.7-.26s.28-.45.28-.83Z"/></g></g></svg>