<?xml version="1.0" encoding="UTF-8"?><svg id="Layer_1" xmlns="http://www.w3.org/2000/svg" width="170" height="170" viewBox="0 0 170 170"><defs><style>.cls-1{fill:#4bb267;}.cls-1,.cls-2,.cls-3,.cls-4,.cls-5,.cls-6,.cls-7,.cls-8,.cls-9,.cls-10,.cls-11,.cls-12,.cls-13,.cls-14,.cls-15,.cls-16,.cls-17,.cls-18,.cls-19,.cls-20,.cls-21,.cls-22,.cls-23,.cls-24,.cls-25,.cls-26,.cls-27,.cls-28,.cls-29,.cls-30,.cls-31,.cls-32,.cls-33,.cls-34,.cls-35,.cls-36,.cls-37,.cls-38,.cls-39,.cls-40,.cls-41,.cls-42,.cls-43,.cls-44,.cls-45,.cls-46,.cls-47,.cls-48,.cls-49,.cls-50,.cls-51,.cls-52{stroke-width:0px;}.cls-2{fill:#48af64;}.cls-3{fill:#51b66a;}.cls-4{fill:#5cbe70;}.cls-5{fill:#5fc072;}.cls-6{fill:#44ad62;}.cls-7{fill:#73ce7e;}.cls-8{fill:#5dbf71;}.cls-9{fill:#77d180;}.cls-10{fill:#46ae63;}.cls-11{fill:#75d07f;}.cls-12{fill:#259750;}.cls-13{fill:#4db368;}.cls-14{fill:#53b76b;}.cls-15{fill:#4fb569;}.cls-16{fill:#2a9b54;}.cls-17{fill:#279851;}.cls-18{fill:#49b166;}.cls-19{fill:#54b86c;}.cls-20{fill:#299952;}.cls-21{fill:#58bb6e;}.cls-22{fill:#5abc6f;}.cls-23{fill:#61c173;}.cls-24{fill:#6ecb7b;}.cls-25{fill:#70cc7c;}.cls-26{fill:#6cc97a;}.cls-27{fill:#309f57;}.cls-28{fill:#39a55c;}.cls-29{fill:#3ba65d;}.cls-30{fill:#37a45b;}.cls-31{fill:#56ba6d;}.cls-32{fill:#2c9c55;}.cls-33{fill:#1a8f4a;}.cls-34{fill:#3da85e;}.cls-35{fill:#35a25a;}.cls-36{fill:#34a159;}.cls-37{fill:#42ab61;}.cls-38{fill:#1c904b;}.cls-39{fill:#3ea95f;}.cls-40{fill:#40aa60;}.cls-41{fill:#21944e;}.cls-42{fill:#1f934d;}.cls-43{fill:#1e924c;}.cls-44{fill:#23954f;}.cls-45{fill:#2e9d56;}.cls-46{fill:#32a058;}.cls-47{fill:#6ac879;}.cls-48{fill:#72cd7d;}.cls-49{fill:#63c374;}.cls-50{fill:#65c475;}.cls-51{fill:#68c778;}.cls-52{fill:#67c576;}</style></defs><path class="cls-33" d="m61.78,78.97c133.68,51.08,89.92,98.71,9.03-9.83,80.89,108.54,15.92,126.97,13.41-3.8,2.51,130.77-63.03,114.15,13.53,3.43-76.56,110.72-121.88,64.32,9.35,9.57-131.23,54.74-141.92-6.7,2.21,12.68-144.13-19.37-116.81-76.35-5.64,11.76C-7.51,14.67,49.15-19.76,91.97,109.88c-42.82-129.64,25.19-130.58-14.03.19,39.23-130.77,97-97.93-11.92-6.78,108.92-91.15,138.11-34.96-6.02-11.6,144.13-23.36,135.47,38.35,1.79-12.73Z"/><path class="cls-38" d="m61.89,78.99c133.03,50.99,89.39,98.37,9-9.78,80.38,108.15,15.66,126.43,13.35-3.77,2.31,130.2-62.94,113.58,13.46,3.43-76.41,110.15-121.47,63.89,9.3,9.54-130.77,54.35-141.34-6.84,2.18,12.63-143.53-19.47-116.25-76.18-5.63,11.7C-7.05,14.86,49.41-19.36,91.92,109.8c-42.5-129.16,25.23-130.02-13.98.18,39.2-130.2,96.69-97.43-11.86-6.76,108.55-90.67,137.54-34.68-5.98-11.55,143.53-23.13,134.82,38.31,1.8-12.68Z"/><path class="cls-43" d="m62,79.01c132.37,50.89,88.85,98.03,8.98-9.73,79.87,107.75,15.4,125.89,13.3-3.74,2.1,129.63-62.85,113,13.4,3.43-76.25,109.57-121.07,63.47,9.25,9.51-130.32,53.96-140.77-6.99,2.16,12.58-142.92-19.57-115.69-76.01-5.62,11.65C-6.59,15.05,49.68-18.96,91.86,109.72c-42.18-128.68,25.26-129.47-13.92.16,39.18-129.63,96.38-96.94-11.8-6.75,108.18-90.19,136.98-34.41-5.94-11.51,142.92-22.9,134.17,38.27,1.81-12.62Z"/><path class="cls-42" d="m62.12,79.02c131.71,50.8,88.32,97.69,8.95-9.67,79.36,107.36,15.15,125.35,13.25-3.71,1.89,129.06-62.76,112.43,13.34,3.43-76.1,109-120.67,63.04,9.2,9.48-129.86,53.56-140.19-7.14,2.13,12.53-142.32-19.66-115.12-75.83-5.61,11.59C-6.13,15.24,49.94-18.56,91.81,109.64c-41.86-128.2,25.29-128.91-13.86.15,39.15-129.06,96.07-96.45-11.74-6.73,107.81-89.72,136.41-34.14-5.9-11.47,142.32-22.67,133.53,38.23,1.81-12.57Z"/><path class="cls-41" d="m62.23,79.04c131.06,50.71,87.79,97.35,8.93-9.62,78.86,106.97,14.89,124.81,13.2-3.68,1.69,128.49-62.67,111.86,13.28,3.43-75.95,108.43-120.26,62.62,9.14,9.45-129.41,53.17-139.61-7.29,2.1,12.47-141.71-19.76-114.56-75.66-5.6,11.53C-5.68,15.44,50.21-18.16,91.75,109.56c-41.54-127.73,25.33-128.36-13.8.13,39.13-128.49,95.76-95.95-11.69-6.71,107.44-89.24,135.85-33.86-5.86-11.43,141.71-22.44,132.88,38.2,1.82-12.51Z"/><path class="cls-44" d="m62.34,79.06c130.4,50.61,87.25,97,8.9-9.57,78.35,106.58,14.63,124.27,13.15-3.65,1.48,127.92-62.58,111.29,13.22,3.43-75.8,107.86-119.86,62.19,9.09,9.42-128.95,52.77-139.03-7.43,2.08,12.42-141.11-19.86-114-75.49-5.59,11.48C-5.22,15.63,50.47-17.76,91.69,109.49c-41.22-127.25,25.36-127.8-13.74.11,39.1-127.92,95.45-95.46-11.63-6.7,107.07-88.76,135.29-33.59-5.82-11.38,141.11-22.2,132.23,38.16,1.83-12.46Z"/><path class="cls-12" d="m62.45,79.08c129.74,50.52,86.72,96.66,8.88-9.52,77.84,106.18,14.37,123.73,13.1-3.62,1.27,127.35-62.49,110.72,13.16,3.43-75.65,107.29-119.46,61.77,9.04,9.39-128.5,52.38-138.45-7.58,2.05,12.37C-31.83,71.18-4.76,15.82,103.09,102.56-4.76,15.82,50.73-17.36,91.64,109.41c-40.9-126.77,25.4-127.25-13.68.1,39.08-127.35,95.14-94.96-11.57-6.68,106.71-88.28,134.72-33.31-5.78-11.34,140.5-21.97,131.58,38.12,1.84-12.4Z"/><path class="cls-17" d="m62.56,79.1c129.09,50.43,86.18,96.32,8.85-9.47,77.33,105.79,14.11,123.19,13.05-3.59,1.07,126.78-62.4,110.15,13.1,3.43-75.49,106.72-119.05,61.34,8.99,9.36-128.04,51.98-137.87-7.73,2.03,12.32-139.9-20.05-112.87-75.14-5.58,11.37C-4.3,16.02,51-16.96,91.58,109.33c-40.58-126.29,25.43-126.69-13.62.08,39.06-126.78,94.83-94.47-11.51-6.67,106.34-87.8,134.16-33.04-5.74-11.3,139.9-21.74,130.94,38.08,1.85-12.34Z"/><path class="cls-20" d="m62.67,79.12c128.43,50.33,85.65,95.98,8.83-9.42,76.82,105.4,13.85,122.65,12.99-3.56.86,126.2-62.31,109.58,13.03,3.43-75.34,106.14-118.65,60.92,8.94,9.33-127.59,51.59-137.29-7.88,2,12.27C-30.83,71.03-3.84,16.21,102.9,102.49-3.84,16.21,51.26-16.57,91.53,109.25c-40.26-125.82,25.47-126.14-13.56.07,39.03-126.2,94.52-93.97-11.45-6.65,105.97-87.32,133.59-32.77-5.7-11.26,139.29-21.51,130.29,38.04,1.86-12.29Z"/><path class="cls-16" d="m62.78,79.14c127.77,50.24,85.12,95.64,8.8-9.37,76.31,105.01,13.6,122.11,12.94-3.53.65,125.63-62.22,109,12.97,3.43-75.19,105.57-118.25,60.49,8.89,9.3-127.13,51.19-136.71-8.02,1.98,12.22C-30.33,70.95-3.38,16.4,102.8,102.45-3.38,16.4,51.53-16.17,91.47,109.17c-39.94-125.34,25.5-125.58-13.5.05,39.01-125.63,94.21-93.48-11.39-6.64,105.6-86.84,133.03-32.49-5.66-11.21,138.69-21.28,129.64,38.01,1.87-12.23Z"/><path class="cls-32" d="m62.89,79.16c127.12,50.15,84.58,95.3,8.78-9.32,75.81,104.61,13.34,121.56,12.89-3.5.45,125.06-62.13,108.43,12.91,3.43-75.04,105-117.85,60.07,8.83,9.27-126.68,50.8-136.13-8.17,1.95,12.17C-29.83,70.88-2.93,16.59,102.7,102.42-2.93,16.59,51.79-15.77,91.41,109.09c-39.62-124.86,25.54-125.03-13.45.03,38.98-125.06,93.9-92.98-11.33-6.62,105.23-86.36,132.46-32.22-5.62-11.17,138.08-21.05,128.99,37.97,1.88-12.18Z"/><path class="cls-45" d="m63,79.18c126.46,50.05,84.05,94.96,8.75-9.27,75.3,104.22,13.08,121.02,12.84-3.47.24,124.49-62.03,107.86,12.85,3.43-74.88,104.43-117.44,59.64,8.78,9.24-126.22,50.4-135.55-8.32,1.93,12.12C-29.33,70.8-2.47,16.79,102.61,102.38-2.47,16.79,52.06-15.37,91.36,109.01c-39.3-124.38,25.57-124.47-13.39.02,38.96-124.49,93.59-92.49-11.27-6.6,104.86-85.88,131.9-31.95-5.58-11.13,137.48-20.82,128.34,37.93,1.89-12.12Z"/><path class="cls-27" d="m63.11,79.2c125.8,49.96,83.52,94.61,8.73-9.21,74.79,103.83,12.82,120.48,12.79-3.44.03,123.92-61.94,107.29,12.79,3.43-74.73,103.86-117.04,59.22,8.73,9.21-125.77,50.01-134.97-8.47,1.9,12.07C-28.83,70.72-2.01,16.98,102.51,102.34-2.01,16.98,52.32-14.97,91.3,108.94c-38.98-123.91,25.61-123.92-13.33,0,38.93-123.92,93.28-91.99-11.21-6.59,104.49-85.4,131.34-31.67-5.54-11.09,136.87-20.58,127.7,37.89,1.89-12.07Z"/><path class="cls-46" d="m63.23,79.19c125.15,49.9,82.98,94.31,8.7-9.16,74.28,103.48,12.56,119.98,12.74-3.41-.17,123.39-61.85,106.76,12.73,3.43-74.58,103.32-116.64,58.83,8.68,9.18-125.31,49.65-134.4-8.57,1.87,12.01C-28.33,70.66-1.55,17.19,102.42,102.29-1.55,17.19,52.58-14.55,91.25,108.84c-38.66-123.39,25.64-123.32-13.27-.01,38.91-123.31,92.97-91.46-11.15-6.57,104.12-84.89,130.77-31.36-5.5-11.05,136.27-20.31,127.05,37.89,1.9-12.01Z"/><path class="cls-36" d="m63.34,79.19c124.49,49.86,82.45,94.02,8.68-9.11,73.77,103.13,12.3,119.49,12.68-3.38-.38,122.87-61.76,106.23,12.67,3.43-74.43,102.8-116.23,58.45,8.63,9.15-124.86,49.3-133.82-8.67,1.85,11.96C-27.83,70.61-1.09,17.41,102.32,102.23-1.09,17.41,52.85-14.13,91.19,108.74c-38.34-122.87,25.68-122.72-13.21-.03,38.89-122.69,92.66-90.92-11.1-6.56,103.75-84.36,130.21-31.04-5.46-11,135.66-20.04,126.4,37.9,1.91-11.96Z"/><path class="cls-35" d="m63.45,79.19c123.83,49.81,81.91,93.72,8.65-9.06,73.26,102.78,12.05,119,12.63-3.35-.59,122.34-61.67,105.71,12.6,3.43-74.28,102.27-115.83,58.08,8.57,9.12-124.41,48.96-133.24-8.78,1.82,11.91C-27.33,70.56-.63,17.62,102.22,102.17-.63,17.62,53.11-13.71,91.13,108.63c-38.02-122.34,25.71-122.12-13.15-.05,38.86-122.08,92.35-90.38-11.04-6.54,103.38-83.83,129.64-30.72-5.42-10.96,135.06-19.76,125.75,37.91,1.92-11.9Z"/><path class="cls-30" d="m63.56,79.18c123.17,49.76,81.38,93.43,8.62-9.01,72.76,102.44,11.79,118.5,12.58-3.31-.79,121.82-61.58,105.18,12.54,3.43-74.12,101.75-115.43,57.7,8.52,9.09-123.95,48.61-132.66-8.88,1.8,11.86C-26.83,70.5-.18,17.84,102.13,102.11-.18,17.84,53.38-13.29,91.08,108.53c-37.7-121.82,25.75-121.52-13.09-.06,38.84-121.46,92.04-89.83-10.98-6.53,103.02-83.31,129.08-30.4-5.38-10.92,134.46-19.48,125.1,37.92,1.93-11.84Z"/><path class="cls-28" d="m63.67,79.18c122.52,49.72,80.85,93.13,8.6-8.96,72.25,102.09,11.53,118.01,12.53-3.28-1,121.29-61.49,104.66,12.48,3.43-73.97,101.22-115.02,57.32,8.47,9.06-123.5,48.26-132.08-8.98,1.77,11.81C-26.33,70.45.28,18.06,102.03,102.05.28,18.06,53.64-12.86,91.02,108.43c-37.38-121.29,25.78-120.92-13.03-.08,38.81-120.84,91.73-89.29-10.92-6.51,102.65-82.78,128.51-30.08-5.34-10.88,133.85-19.2,124.46,37.93,1.94-11.79Z"/><path class="cls-29" d="m63.78,79.17c121.86,49.67,80.31,92.84,8.57-8.91,71.74,101.75,11.27,117.51,12.48-3.25-1.21,120.77-61.4,104.13,12.42,3.43-73.82,100.7-114.62,56.94,8.42,9.03-123.04,47.91-131.5-9.08,1.75,11.76C-25.83,70.4.74,18.27,101.94,101.99.74,18.27,53.9-12.44,90.97,108.33c-37.06-120.77,25.82-120.32-12.97-.09,38.79-120.22,91.42-88.75-10.86-6.49,102.28-82.26,127.95-29.76-5.3-10.83,133.25-18.92,123.81,37.94,1.95-11.73Z"/><path class="cls-34" d="m63.89,79.17c121.2,49.62,79.78,92.54,8.55-8.86,71.23,101.4,11.01,117.02,12.43-3.22-1.41,120.24-61.31,103.61,12.36,3.43-73.67,100.17-114.22,56.56,8.37,9-122.59,47.56-130.92-9.18,1.72,11.71C-25.33,70.34,1.2,18.49,101.84,101.93,1.2,18.49,54.17-12.02,90.91,108.23c-36.74-120.24,25.85-119.72-12.92-.11,38.77-119.61,91.11-88.21-10.8-6.48,101.91-81.73,127.38-29.44-5.26-10.79,132.64-18.64,123.16,37.95,1.96-11.68Z"/><path class="cls-39" d="m64,79.16c120.55,49.58,79.25,92.25,8.52-8.81,70.72,101.05,10.75,116.53,12.37-3.19-1.62,119.72-61.22,103.08,12.3,3.43-73.51,99.65-113.82,56.18,8.32,8.97-122.13,47.21-130.34-9.28,1.69,11.66C-24.83,70.29,1.66,18.7,101.74,101.87,1.66,18.7,54.43-11.6,90.85,108.12c-36.42-119.72,25.88-119.11-12.86-.13,38.74-118.99,90.8-87.67-10.74-6.46,101.54-81.21,126.82-29.12-5.22-10.75,132.04-18.37,122.51,37.95,1.97-11.62Z"/><path class="cls-40" d="m64.11,79.16c119.89,49.53,78.71,91.95,8.5-8.75,70.21,100.71,10.49,116.03,12.32-3.16-1.83,119.2-61.13,102.56,12.24,3.43-73.36,99.12-113.41,55.81,8.26,8.94-121.68,46.87-129.76-9.38,1.67,11.61C-24.33,70.24,2.12,18.92,101.65,101.81,2.12,18.92,54.7-11.17,90.8,108.02c-36.1-119.2,25.92-118.51-12.8-.14,38.72-118.37,90.49-87.13-10.68-6.45,101.17-80.68,126.26-28.8-5.18-10.71,131.43-18.09,121.87,37.96,1.97-11.57Z"/><path class="cls-37" d="m64.22,79.16c119.23,49.48,78.18,91.66,8.47-8.7,69.71,100.36,10.24,115.54,12.27-3.13-2.04,118.67-61.04,102.03,12.17,3.43-73.21,98.6-113.01,55.43,8.21,8.91-121.22,46.52-129.18-9.48,1.64,11.56C-23.83,70.18,2.57,19.14,101.55,101.75,2.57,19.14,54.96-10.75,90.74,107.92c-35.78-118.67,25.95-117.91-12.74-.16,38.69-117.75,90.18-86.59-10.62-6.43,100.8-80.15,125.69-28.47-5.14-10.66,130.83-17.81,121.22,37.97,1.98-11.51Z"/><path class="cls-6" d="m64.34,79.15c118.58,49.44,77.64,91.36,8.45-8.65,69.2,100.02,9.98,115.05,12.22-3.1-2.24,118.15-60.94,101.51,12.11,3.43-73.06,98.07-112.61,55.05,8.16,8.88-120.77,46.17-128.6-9.58,1.62,11.5C-23.33,70.13,3.03,19.35,101.45,101.69,3.03,19.35,55.22-10.33,90.68,107.82c-35.46-118.15,25.99-117.31-12.68-.17,38.67-117.14,89.87-86.04-10.56-6.42,100.43-79.63,125.13-28.15-5.1-10.62,130.22-17.53,120.57,37.98,1.99-11.46Z"/><path class="cls-10" d="m64.45,79.15c117.92,49.39,77.11,91.07,8.42-8.6,68.69,99.67,9.72,114.55,12.17-3.07-2.45,117.62-60.85,100.98,12.05,3.43-72.91,97.55-112.2,54.67,8.11,8.85-120.31,45.82-128.03-9.68,1.59,11.45C-22.83,70.08,3.49,19.57,101.36,101.63,3.49,19.57,55.49-9.91,90.63,107.72c-35.14-117.62,26.02-116.71-12.62-.19,38.64-116.52,89.56-85.5-10.51-6.4,100.06-79.1,124.56-27.83-5.06-10.58,129.62-17.25,119.92,37.99,2-11.4Z"/><path class="cls-2" d="m64.56,79.14c117.26,49.34,76.58,90.77,8.4-8.55,68.18,99.32,9.46,114.06,12.12-3.04-2.66,117.1-60.76,100.46,11.99,3.43-72.75,97.02-111.8,54.29,8.06,8.82-119.86,45.47-127.45-9.78,1.57,11.4C-22.33,70.02,3.95,19.78,101.26,101.57,3.95,19.78,55.75-9.49,90.57,107.61c-34.82-117.1,26.06-116.11-12.56-.2,38.62-115.9,89.25-84.96-10.45-6.38,99.7-78.58,124-27.51-5.01-10.54,129.01-16.98,119.27,38,2.01-11.34Z"/><path class="cls-18" d="m64.67,79.14c116.61,49.3,76.04,90.48,8.37-8.5,67.67,98.98,9.2,113.57,12.07-3.01-2.86,116.58-60.67,99.93,11.93,3.43-72.6,96.5-111.4,53.91,8.01,8.79-119.4,45.13-126.87-9.88,1.54,11.35-128.41-21.24-102.17-71.2-5.41,10.31C4.41,20,56.02-9.06,90.52,107.51c-34.5-116.58,26.09-115.5-12.5-.22,38.6-115.28,88.94-84.42-10.39-6.37,99.33-78.05,123.43-27.19-4.97-10.49,128.41-16.7,118.63,38.01,2.02-11.29Z"/><path class="cls-1" d="m64.78,79.13c115.95,49.25,75.51,90.18,8.35-8.45,67.16,98.63,8.94,113.07,12.01-2.98-3.07,116.05-60.58,99.41,11.87,3.43-72.45,95.97-110.99,53.54,7.95,8.76-118.95,44.78-126.29-9.98,1.51,11.3-127.8-21.28-101.61-70.98-5.41,10.26C4.87,20.22,56.28-8.64,90.46,107.41c-34.18-116.05,26.13-114.9-12.44-.24,38.57-114.67,88.63-83.88-10.33-6.35,98.96-77.53,122.87-26.87-4.93-10.45,127.8-16.42,117.98,38.02,2.03-11.23Z"/><path class="cls-13" d="m64.89,79.13c115.29,49.2,74.98,89.89,8.32-8.4,66.66,98.29,8.69,112.58,11.96-2.95-3.28,115.53-60.49,98.88,11.81,3.43-72.3,95.45-110.59,53.16,7.9,8.73-118.49,44.43-125.71-10.09,1.49,11.25-127.2-21.33-101.05-70.76-5.4,10.2C5.32,20.43,56.54-8.22,90.4,107.31c-33.86-115.53,26.16-114.3-12.39-.25,38.55-114.05,88.32-83.34-10.27-6.34,98.59-77,122.3-26.55-4.89-10.41,127.2-16.14,117.33,38.02,2.04-11.18Z"/><path class="cls-15" d="m65,79.13c114.64,49.15,74.44,89.6,8.29-8.34,66.15,97.94,8.43,112.08,11.91-2.92-3.48,115-60.4,98.36,11.74,3.43-72.14,94.92-110.19,52.78,7.85,8.7-118.04,44.08-125.13-10.19,1.46,11.2-126.59-21.38-100.48-70.54-5.39,10.14C5.78,20.65,56.81-7.8,90.35,107.21c-33.54-115,26.2-113.7-12.33-.27,38.52-113.43,88.01-82.8-10.21-6.32,98.22-76.47,121.74-26.23-4.85-10.37,126.59-15.86,116.68,38.03,2.05-11.12Z"/><path class="cls-3" d="m65.11,79.12c113.98,49.11,73.91,89.3,8.27-8.29,65.64,97.59,8.17,111.59,11.86-2.89-3.69,114.48-60.31,97.83,11.68,3.43-71.99,94.4-109.78,52.4,7.8,8.67-117.58,43.73-124.55-10.29,1.44,11.15-125.99-21.43-99.92-70.32-5.38,10.09C6.24,20.86,57.07-7.37,90.29,107.1c-33.22-114.48,26.23-113.1-12.27-.28,38.5-112.81,87.7-82.25-10.15-6.31,97.85-75.95,121.18-25.91-4.81-10.33,125.99-15.59,116.03,38.04,2.05-11.07Z"/><path class="cls-14" d="m65.22,79.12c113.32,49.06,73.37,89.01,8.24-8.24,65.13,97.25,7.91,111.1,11.81-2.86-3.9,113.95-60.22,97.31,11.62,3.43-71.84,93.87-109.38,52.02,7.75,8.64-117.13,43.39-123.97-10.39,1.41,11.1-125.38-21.48-99.36-70.11-5.37,10.03C6.7,21.08,57.34-6.95,90.24,107c-32.9-113.95,26.27-112.5-12.21-.3,38.48-112.2,87.39-81.71-10.09-6.29,97.48-75.42,120.61-25.59-4.77-10.28,125.38-15.31,115.39,38.05,2.06-11.01Z"/><path class="cls-19" d="m65.34,79.11c112.67,49.01,72.84,88.71,8.22-8.19,64.62,96.9,7.65,110.6,11.76-2.83-4.1,113.43-60.13,96.78,11.56,3.43-71.69,93.35-108.98,51.64,7.7,8.61-116.67,43.04-123.39-10.49,1.39,11.05-124.78-21.53-98.79-69.89-5.36,9.98C7.16,21.3,57.6-6.53,90.18,106.9c-32.58-113.43,26.3-111.9-12.15-.32,38.45-111.58,87.08-81.17-10.03-6.27,97.11-74.9,120.05-25.27-4.73-10.24,124.78-15.03,114.74,38.06,2.07-10.95Z"/><path class="cls-31" d="m65.45,79.11c112.01,48.97,72.31,88.42,8.19-8.14,64.11,96.56,7.39,110.11,11.7-2.8-4.31,112.91-60.04,96.26,11.5,3.43-71.54,92.82-108.58,51.27,7.64,8.58-116.22,42.69-122.81-10.59,1.36,10.99-124.17-21.58-98.23-69.67-5.35,9.92C7.62,21.51,57.86-6.11,90.12,106.8c-32.26-112.91,26.34-111.29-12.09-.33,38.43-110.96,86.77-80.63-9.98-6.26,96.74-74.37,119.48-24.95-4.69-10.2,124.17-14.75,114.09,38.07,2.08-10.9Z"/><path class="cls-21" d="m65.56,79.1c111.35,48.92,71.77,88.12,8.17-8.09,63.6,96.21,7.14,109.62,11.65-2.77-4.52,112.38-59.95,95.74,11.44,3.44-71.38,92.3-108.17,50.89,7.59,8.55-115.76,42.34-122.23-10.69,1.34,10.94-123.57-21.63-97.67-69.45-5.35,9.87C8.07,21.73,58.13-5.69,90.07,106.7c-31.94-112.38,26.37-110.69-12.03-.35,38.4-110.34,86.46-80.09-9.92-6.24,96.37-73.85,118.92-24.63-4.65-10.16,123.57-14.47,113.44,38.08,2.09-10.84Z"/><path class="cls-22" d="m65.67,79.1c110.7,48.87,71.24,87.83,8.14-8.04,63.1,95.86,6.88,109.12,11.6-2.74-4.72,111.86-59.85,95.21,11.38,3.44-71.23,91.78-107.77,50.51,7.54,8.52-115.31,41.99-121.66-10.79,1.31,10.89-122.97-21.68-97.1-69.23-5.34,9.81C8.53,21.94,58.39-5.26,90.01,106.59c-31.62-111.86,26.41-110.09-11.97-.36,38.38-109.73,86.15-79.55-9.86-6.23,96.01-73.32,118.35-24.31-4.61-10.11,122.97-14.2,112.8,38.09,2.1-10.79Z"/><path class="cls-4" d="m65.78,79.1c110.04,48.83,70.7,87.53,8.12-7.99,62.59,95.52,6.62,108.63,11.55-2.71-4.93,111.33-59.76,94.69,11.31,3.44-71.08,91.25-107.37,50.13,7.49,8.49-114.85,41.64-121.08-10.89,1.28,10.84-122.36-21.73-96.54-69.01-5.33,9.75C8.99,22.16,58.66-4.84,89.96,106.49c-31.3-111.33,26.44-109.49-11.91-.38,38.35-109.11,85.84-79.01-9.8-6.21,95.64-72.79,117.79-23.99-4.57-10.07,122.36-13.92,112.15,38.09,2.11-10.73Z"/><path class="cls-8" d="m65.89,79.09c109.38,48.78,70.17,87.24,8.09-7.94,62.08,95.17,6.36,108.13,11.5-2.67-5.14,110.81-59.67,94.16,11.25,3.44-70.93,90.73-106.96,49.75,7.44,8.45-114.4,41.3-120.5-10.99,1.26,10.79-121.76-21.78-95.98-68.79-5.32,9.7C9.45,22.38,58.92-4.42,89.9,106.39c-30.98-110.81,26.47-108.89-11.86-.4,38.33-108.49,85.53-78.46-9.74-6.2,95.27-72.27,117.22-23.67-4.53-10.03,121.76-13.64,111.5,38.1,2.12-10.68Z"/><path class="cls-5" d="m66,79.09c108.73,48.73,69.64,86.94,8.07-7.88,61.57,94.83,6.1,107.64,11.45-2.64-5.34,110.29-59.58,93.64,11.19,3.44-70.77,90.2-106.56,49.37,7.38,8.42-113.95,40.95-119.92-11.09,1.23,10.74-121.15-21.83-95.41-68.57-5.31,9.64C9.91,22.59,59.18-4,89.84,106.29c-30.66-110.29,26.51-108.29-11.8-.41,38.31-107.87,85.22-77.92-9.68-6.18,94.9-71.74,116.66-23.35-4.49-9.99,121.15-13.36,110.85,38.11,2.13-10.62Z"/><path class="cls-23" d="m66.11,79.08c108.07,48.69,69.1,86.65,8.04-7.83,61.06,94.48,5.84,107.15,11.39-2.61-5.55,109.76-59.49,93.11,11.13,3.44-70.62,89.68-106.16,48.99,7.33,8.39-113.49,40.6-119.34-11.19,1.21,10.69-120.55-21.88-94.85-68.35-5.3,9.59C10.37,22.81,59.45-3.57,89.79,106.19c-30.34-109.76,26.54-107.68-11.74-.43,38.28-107.26,84.91-77.38-9.62-6.16,94.53-71.22,116.1-23.03-4.45-9.94,120.55-13.08,110.2,38.12,2.13-10.57Z"/><path class="cls-49" d="m66.22,79.08c107.41,48.64,68.57,86.35,8.02-7.78,60.55,94.13,5.59,106.65,11.34-2.58-5.76,109.24-59.4,92.59,11.07,3.44-70.47,89.15-105.75,48.62,7.28,8.36-113.04,40.25-118.76-11.29,1.18,10.64-119.94-21.93-94.29-68.13-5.29,9.53C10.83,23.02,59.71-3.15,89.73,106.08c-30.02-109.24,26.58-107.08-11.68-.44,38.26-106.64,84.6-76.84-9.56-6.15,94.16-70.69,115.53-22.71-4.41-9.9,119.94-12.81,109.56,38.13,2.14-10.51Z"/><path class="cls-50" d="m66.33,79.07c106.76,48.59,68.04,86.06,7.99-7.73,60.05,93.79,5.33,106.16,11.29-2.55-5.96,108.71-59.31,92.06,11.01,3.44-70.32,88.63-105.35,48.24,7.23,8.33-112.58,39.9-118.18-11.4,1.16,10.59-119.34-21.98-93.72-67.91-5.28,9.48C11.28,23.24,59.98-2.73,89.68,105.98c-29.7-108.71,26.61-106.48-11.62-.46C116.29-.5,162.34,29.22,68.55,99.39c93.79-70.17,114.97-22.39-4.37-9.86,119.34-12.53,108.91,38.14,2.15-10.45Z"/><path class="cls-52" d="m66.45,79.07c106.1,48.55,67.5,85.76,7.96-7.68,59.54,93.44,5.07,105.67,11.24-2.52-6.17,108.19-59.22,91.54,10.95,3.44-70.17,88.1-104.95,47.86,7.18,8.3-112.13,39.56-117.6-11.5,1.13,10.53-118.73-22.03-93.16-67.69-5.28,9.42C11.74,23.46,60.24-2.31,89.62,105.88,60.24-2.31,116.27,0,78.06,105.4,116.27,0,162.04,29.65,68.61,99.29c93.42-69.64,114.4-22.07-4.33-9.82,118.73-12.25,108.26,38.15,2.16-10.4Z"/><path class="cls-51" d="m66.56,79.07c105.44,48.5,66.97,85.47,7.94-7.63,59.03,93.1,4.81,105.17,11.19-2.49-6.38,107.66-59.13,91.01,10.88,3.44-70.01,87.58-104.55,47.48,7.13,8.27-111.67,39.21-117.02-11.6,1.1,10.48-118.13-22.08-92.6-67.47-5.27,9.37C12.2,23.67,60.5-1.89,89.56,105.78c-29.06-107.66,26.68-105.28-11.5-.49C116.25.5,161.73,30.07,68.68,99.18c93.05-69.11,113.84-21.75-4.29-9.77,118.13-11.97,107.61,38.16,2.17-10.34Z"/><path class="cls-47" d="m66.67,79.06c104.79,48.45,66.43,85.17,7.91-7.58,58.52,92.75,4.55,104.68,11.14-2.46-6.58,107.14-59.04,90.49,10.82,3.44-69.86,87.05-104.14,47.1,7.07,8.24-111.22,38.86-116.44-11.7,1.08,10.43-117.52-22.13-92.04-67.25-5.26,9.31C12.66,23.89,60.77-1.46,89.51,105.68c-28.74-107.14,26.72-104.68-11.44-.51,38.16-104.17,83.36-74.67-9.33-6.09,92.69-68.59,113.27-21.42-4.25-9.73,117.52-11.69,106.97,38.16,2.18-10.29Z"/><path class="cls-26" d="m66.78,79.06c104.13,48.41,65.9,84.88,7.89-7.53,58.01,92.41,4.29,104.19,11.08-2.43-6.79,106.62-58.95,89.96,10.76,3.44-69.71,86.53-103.74,46.72,7.02,8.21-110.76,38.51-115.86-11.8,1.05,10.38-116.92-22.18-91.47-67.03-5.25,9.25C13.12,24.1,61.03-1.04,89.45,105.57c-28.42-106.62,26.75-104.08-11.38-.52,38.14-103.55,83.05-74.13-9.27-6.07,92.32-68.06,112.71-21.1-4.21-9.69,116.92-11.41,106.32,38.17,2.19-10.23Z"/><path class="cls-24" d="m66.89,79.05c103.47,48.36,65.37,84.58,7.86-7.48,57.5,92.06,4.03,103.69,11.03-2.4-7,106.09-58.86,89.44,10.7,3.44-69.56,86-103.34,46.35,6.97,8.18-110.31,38.16-115.29-11.9,1.03,10.33-116.31-22.23-90.91-66.81-5.24,9.2C13.58,24.32,61.3-.62,89.4,105.47c-28.1-106.09,26.79-103.47-11.33-.54,38.11-102.93,82.74-73.59-9.21-6.05,91.95-67.54,112.15-20.78-4.17-9.65,116.31-11.14,105.67,38.18,2.2-10.18Z"/><path class="cls-25" d="m67,79.05c102.82,48.31,64.83,84.29,7.84-7.42,57,91.71,3.78,103.2,10.98-2.37-7.21,105.57-58.76,88.91,10.64,3.44-69.4,85.48-102.93,45.97,6.92,8.15-109.85,37.82-114.71-12,1,10.28-115.71-22.28-90.35-66.59-5.23,9.14C14.03,24.54,61.56-.2,89.34,105.37,61.56-.2,116.16,2.5,78.07,104.81c38.09-102.32,82.43-73.05-9.15-6.04,91.58-67.01,111.58-20.46-4.13-9.6,115.71-10.86,105.02,38.19,2.21-10.12Z"/><path class="cls-48" d="m67.11,79.04c102.16,48.26,64.3,83.99,7.81-7.37,56.49,91.37,3.52,102.7,10.93-2.34-7.41,105.04-58.67,88.39,10.58,3.44-69.25,84.95-102.53,45.59,6.87,8.12-109.4,37.47-114.13-12.1.98,10.23-115.1-22.33-89.78-66.37-5.22,9.09C14.49,24.75,61.82.22,89.28,105.27,61.82.22,116.14,3,78.08,104.7c38.06-101.7,82.12-72.51-9.09-6.02,91.21-66.48,111.02-20.14-4.09-9.56,115.1-10.58,104.37,38.2,2.21-10.07Z"/><path class="cls-7" d="m67.22,79.04c101.5,48.22,63.77,83.7,7.79-7.32,55.98,91.02,3.26,102.21,10.88-2.31-7.62,104.52-58.58,87.86,10.52,3.44-69.1,84.43-102.13,45.21,6.82,8.09-108.94,37.12-113.55-12.2.95,10.18-114.5-22.38-89.22-66.15-5.22,9.03C14.95,24.97,62.09.65,89.23,105.17c-27.14-104.52,26.89-101.67-11.15-.59,38.04-101.08,81.81-71.97-9.03-6.01,90.84-65.96,110.45-19.82-4.05-9.52,114.5-10.3,103.73,38.21,2.22-10.01Z"/><path class="cls-11" d="m67.33,79.04c100.85,48.17,63.23,83.4,7.76-7.27,55.47,90.68,3,101.72,10.83-2.28-7.83,103.99-58.49,87.34,10.45,3.44-68.95,83.9-101.72,44.83,6.76,8.06-108.49,36.77-112.97-12.3.92,10.13-113.89-22.43-88.66-65.93-5.21,8.98C15.41,25.18,62.35,1.07,89.17,105.06c-26.82-103.99,26.93-101.07-11.09-.6,38.02-100.46,81.5-71.43-8.97-5.99,90.47-65.43,109.89-19.5-4.01-9.48,113.89-10.02,103.08,38.22,2.23-9.95Z"/><path class="cls-9" d="m67.45,79.03c100.19,48.12,62.7,83.11,7.74-7.22,54.96,90.33,2.74,101.22,10.78-2.25-8.03,103.47-58.4,86.81,10.39,3.44-68.79,83.38-101.32,44.45,6.71,8.03-108.03,36.42-112.39-12.4.9,10.08-113.29-22.48-88.09-65.71-5.2,8.92C15.87,25.4,62.62,1.49,89.12,104.96c-26.5-103.47,26.96-100.47-11.03-.62,37.99-99.85,81.19-70.88-8.91-5.98,90.1-64.91,109.32-19.18-3.97-9.44,113.29-9.75,102.43,38.23,2.24-9.9Z"/></svg>